<svg xmlns="http://www.w3.org/2000/svg" xmlns:xlink="http://www.w3.org/1999/xlink" width="329.319" height="314.625" viewBox="0 0 329.319 314.625">
  <defs>
    <clipPath id="clip-path">
      <rect id="Retângulo_143" data-name="Retângulo 143" width="329.319" height="314.625" transform="translate(0.341)" fill="none"/>
    </clipPath>
    <clipPath id="clip-path-2">
      <rect id="Retângulo_132" data-name="Retângulo 132" width="329.319" height="314.625" fill="none"/>
    </clipPath>
    <clipPath id="clip-path-3">
      <rect id="Retângulo_127" data-name="Retângulo 127" width="314.625" height="314.625" fill="none"/>
    </clipPath>
    <clipPath id="clip-path-4">
      <rect id="Retângulo_128" data-name="Retângulo 128" width="234.711" height="234.711" fill="none"/>
    </clipPath>
    <clipPath id="clip-path-5">
      <rect id="Retângulo_129" data-name="Retângulo 129" width="169.241" height="169.241" fill="none"/>
    </clipPath>
    <clipPath id="clip-path-6">
      <rect id="Retângulo_130" data-name="Retângulo 130" width="103.801" height="76.15" fill="none"/>
    </clipPath>
    <clipPath id="clip-path-8">
      <rect id="Retângulo_133" data-name="Retângulo 133" width="64.476" height="40.831" fill="none"/>
    </clipPath>
    <clipPath id="clip-path-10">
      <rect id="Retângulo_135" data-name="Retângulo 135" width="66.778" height="42.288" fill="none"/>
    </clipPath>
    <clipPath id="clip-path-14">
      <rect id="Retângulo_139" data-name="Retângulo 139" width="78.301" height="49.585" fill="none"/>
    </clipPath>
    <clipPath id="clip-path-16">
      <rect id="Retângulo_141" data-name="Retângulo 141" width="86.73" height="54.923" fill="none"/>
    </clipPath>
  </defs>
  <g id="Grupo_1841" data-name="Grupo 1841" transform="translate(-0.341)">
    <g id="Grupo_393" data-name="Grupo 393" clip-path="url(#clip-path)">
      <g id="Grupo_367" data-name="Grupo 367">
        <g id="Grupo_366" data-name="Grupo 366" clip-path="url(#clip-path-2)">
          <g id="Grupo_356" data-name="Grupo 356" transform="translate(14.693)" opacity="0.38">
            <g id="Grupo_355" data-name="Grupo 355">
              <g id="Grupo_354" data-name="Grupo 354" clip-path="url(#clip-path-3)">
                <path id="Caminho_463" data-name="Caminho 463" d="M338.986,157.313A157.312,157.312,0,1,1,181.674,0,157.313,157.313,0,0,1,338.986,157.313" transform="translate(-24.361)" fill="#e6e6e6"/>
              </g>
            </g>
          </g>
          <g id="Grupo_359" data-name="Grupo 359" transform="translate(54.65 39.957)" opacity="0.49">
            <g id="Grupo_358" data-name="Grupo 358">
              <g id="Grupo_357" data-name="Grupo 357" clip-path="url(#clip-path-4)">
                <path id="Caminho_464" data-name="Caminho 464" d="M325.317,183.6A117.356,117.356,0,1,1,207.962,66.246,117.356,117.356,0,0,1,325.317,183.6" transform="translate(-90.606 -66.246)" fill="#e6e6e6"/>
              </g>
            </g>
          </g>
          <g id="Grupo_362" data-name="Grupo 362" transform="translate(87.386 72.692)" opacity="0.63">
            <g id="Grupo_361" data-name="Grupo 361">
              <g id="Grupo_360" data-name="Grupo 360" clip-path="url(#clip-path-5)">
                <path id="Caminho_465" data-name="Caminho 465" d="M314.12,205.139a84.62,84.62,0,1,1-84.62-84.621,84.62,84.62,0,0,1,84.62,84.621" transform="translate(-144.879 -120.518)" fill="#dbdbdb"/>
              </g>
            </g>
          </g>
          <g id="Grupo_365" data-name="Grupo 365" transform="translate(127.472 114.257)" style="mix-blend-mode: multiply;isolation: isolate">
            <g id="Grupo_364" data-name="Grupo 364">
              <g id="Grupo_363" data-name="Grupo 363" clip-path="url(#clip-path-6)">
                <path id="Caminho_466" data-name="Caminho 466" d="M311.145,256.018H221.218l-9.879,9.56V193.424a4,4,0,0,1,3.995-3.995h95.811a4,4,0,0,1,3.995,3.995v58.6a4,4,0,0,1-3.995,3.995" transform="translate(-211.339 -189.429)" fill="#e6e6e6"/>
              </g>
            </g>
          </g>
          <path id="Caminho_467" data-name="Caminho 467" d="M305.183,248.637H215.256l-9.879,9.56V186.043a4,4,0,0,1,3.995-3.995h95.811a4,4,0,0,1,3.995,3.995v58.6a4,4,0,0,1-3.995,3.995" transform="translate(-81.501 -72.243)" fill="#3e6d93"/>
          <rect id="Retângulo_131" data-name="Retângulo 131" width="94.691" height="5.175" transform="translate(128.43 147.335)" fill="#ffa800"/>
        </g>
      </g>
      <text id="PROCESSOS" transform="translate(141.924 138.898)" fill="#fff" font-size="8" font-family="Poppins-ExtraBold, Poppins" font-weight="800"><tspan x="0" y="0" letter-spacing="0.2em">PROCE</tspan><tspan y="0" letter-spacing="0.199em">S</tspan><tspan y="0" letter-spacing="0.2em">SO</tspan><tspan y="0">S</tspan></text>
      <text id="DE_TRABALHO" data-name="DE TRABALHO" transform="translate(136.105 149.544)" fill="#fff" font-size="8" font-family="Poppins-ExtraBold, Poppins" font-weight="800"><tspan x="0" y="0" letter-spacing="0.2em">DE T</tspan><tspan y="0" letter-spacing="0.199em">R</tspan><tspan y="0" letter-spacing="0.2em">ABA</tspan><tspan y="0" letter-spacing="0.199em">LH</tspan><tspan y="0">O</tspan></text>
      <g id="Grupo_372" data-name="Grupo 372">
        <g id="Grupo_371" data-name="Grupo 371" clip-path="url(#clip-path-2)">
          <g id="Grupo_370" data-name="Grupo 370" transform="translate(220.557 34.434)" style="mix-blend-mode: multiply;isolation: isolate">
            <g id="Grupo_369" data-name="Grupo 369">
              <g id="Grupo_368" data-name="Grupo 368" clip-path="url(#clip-path-8)">
                <path id="Caminho_468" data-name="Caminho 468" d="M420.874,97.92H374.938a9.27,9.27,0,0,1-9.27-9.27V66.359a9.27,9.27,0,0,1,9.27-9.27h45.936a9.27,9.27,0,0,1,9.27,9.27V88.65a9.27,9.27,0,0,1-9.27,9.27" transform="translate(-365.668 -57.089)" fill="#e6e6e6"/>
              </g>
            </g>
          </g>
          <path id="Caminho_469" data-name="Caminho 469" d="M419.37,95.664H373.434a9.27,9.27,0,0,1-9.27-9.271V64.1a9.27,9.27,0,0,1,9.27-9.27H419.37a9.271,9.271,0,0,1,9.271,9.27v22.29a9.271,9.271,0,0,1-9.271,9.271" transform="translate(-144.514 -21.76)" fill="#6dafcc"/>
        </g>
      </g>
      <text id="GERIR" transform="translate(235.78 54.742)" fill="#f2f2f2" font-size="8" font-family="Poppins-ExtraBold, Poppins" font-weight="800"><tspan x="0" y="0" letter-spacing="0.2em">GE</tspan><tspan y="0" letter-spacing="0.199em">RI</tspan><tspan y="0">R</tspan></text>
      <g id="Grupo_377" data-name="Grupo 377">
        <g id="Grupo_376" data-name="Grupo 376" clip-path="url(#clip-path-2)">
          <g id="Grupo_375" data-name="Grupo 375" transform="translate(134.178 234.513)" style="mix-blend-mode: multiply;isolation: isolate">
            <g id="Grupo_374" data-name="Grupo 374">
              <g id="Grupo_373" data-name="Grupo 373" clip-path="url(#clip-path-10)">
                <path id="Caminho_470" data-name="Caminho 470" d="M279.966,431.094H231.729a9.27,9.27,0,0,1-9.271-9.27V398.077a9.271,9.271,0,0,1,9.271-9.271h48.237a9.27,9.27,0,0,1,9.27,9.271v23.748a9.27,9.27,0,0,1-9.27,9.27" transform="translate(-222.458 -388.806)" fill="#e6e6e6"/>
              </g>
            </g>
          </g>
          <path id="Caminho_471" data-name="Caminho 471" d="M278.408,428.758H230.171a9.271,9.271,0,0,1-9.271-9.27V395.741a9.271,9.271,0,0,1,9.271-9.271h48.237a9.271,9.271,0,0,1,9.271,9.271v23.748a9.271,9.271,0,0,1-9.271,9.27" transform="translate(-87.661 -153.366)" fill="#f4bb2a"/>
        </g>
      </g>
      <text id="ENSINAR" transform="translate(142.162 256.668)" fill="#f2f2f2" font-size="8" font-family="Poppins-ExtraBold, Poppins" font-weight="800"><tspan x="0" y="0" letter-spacing="0.2em">ENS</tspan><tspan y="0" letter-spacing="0.199em">IN</tspan><tspan y="0" letter-spacing="0.2em">A</tspan><tspan y="0">R</tspan></text>
      <g id="Grupo_382" data-name="Grupo 382">
        <g id="Grupo_381" data-name="Grupo 381" clip-path="url(#clip-path-2)">
          <g id="Grupo_380" data-name="Grupo 380" transform="translate(69.352 43.61)" style="mix-blend-mode: multiply;isolation: isolate">
            <g id="Grupo_379" data-name="Grupo 379">
              <g id="Grupo_378" data-name="Grupo 378" clip-path="url(#clip-path-10)">
                <path id="Caminho_472" data-name="Caminho 472" d="M172.487,114.59H124.25a9.27,9.27,0,0,1-9.271-9.27V81.573A9.271,9.271,0,0,1,124.25,72.3h48.237a9.27,9.27,0,0,1,9.27,9.271V105.32a9.27,9.27,0,0,1-9.27,9.27" transform="translate(-114.98 -72.302)" fill="#e6e6e6"/>
              </g>
            </g>
          </g>
          <path id="Caminho_473" data-name="Caminho 473" d="M170.93,112.254H122.693a9.271,9.271,0,0,1-9.271-9.271V79.237a9.271,9.271,0,0,1,9.271-9.271H170.93a9.27,9.27,0,0,1,9.27,9.271v23.747a9.27,9.27,0,0,1-9.27,9.271" transform="translate(-45.01 -27.765)" fill="#1b8992"/>
        </g>
      </g>
      <text id="ASSISTIR" transform="translate(76.124 64.608)" fill="#f2f2f2" font-size="8" font-family="Poppins-ExtraBold, Poppins" font-weight="800"><tspan x="0" y="0" letter-spacing="0.2em">A</tspan><tspan y="0" letter-spacing="0.199em">SS</tspan><tspan y="0" letter-spacing="0.2em">I</tspan><tspan y="0" letter-spacing="0.199em">S</tspan><tspan y="0" letter-spacing="0.2em">TI</tspan><tspan y="0">R</tspan></text>
      <g id="Grupo_387" data-name="Grupo 387">
        <g id="Grupo_386" data-name="Grupo 386" clip-path="url(#clip-path-2)">
          <g id="Grupo_385" data-name="Grupo 385" transform="translate(1.102 162.098)" style="mix-blend-mode: multiply;isolation: isolate">
            <g id="Grupo_384" data-name="Grupo 384">
              <g id="Grupo_383" data-name="Grupo 383" clip-path="url(#clip-path-14)">
                <path id="Caminho_474" data-name="Caminho 474" d="M70.857,318.331H11.1a9.27,9.27,0,0,1-9.27-9.27V278.017a9.27,9.27,0,0,1,9.27-9.271h59.76a9.27,9.27,0,0,1,9.27,9.271v31.045a9.27,9.27,0,0,1-9.27,9.27" transform="translate(-1.827 -268.747)" fill="#e6e6e6"/>
              </g>
            </g>
          </g>
          <path id="Caminho_475" data-name="Caminho 475" d="M69.03,315.592H9.27A9.27,9.27,0,0,1,0,306.322V275.278a9.27,9.27,0,0,1,9.27-9.271H69.03a9.27,9.27,0,0,1,9.27,9.271v31.044a9.27,9.27,0,0,1-9.27,9.271" transform="translate(0 -105.561)" fill="#29696d"/>
        </g>
      </g>
      <text id="INVESTIGAR" transform="translate(4.786 186.595)" fill="#f2f2f2" font-size="8" font-family="Poppins-ExtraBold, Poppins" font-weight="800"><tspan x="0" y="0" letter-spacing="0.2em">IN</tspan><tspan y="0" letter-spacing="0.199em">V</tspan><tspan y="0" letter-spacing="0.2em">EST</tspan><tspan y="0" letter-spacing="0.199em">I</tspan><tspan y="0" letter-spacing="0.2em">GA</tspan><tspan y="0">R</tspan></text>
      <g id="Grupo_392" data-name="Grupo 392">
        <g id="Grupo_391" data-name="Grupo 391" clip-path="url(#clip-path-2)">
          <g id="Grupo_390" data-name="Grupo 390" transform="translate(242.052 165.536)" style="mix-blend-mode: multiply;isolation: isolate">
            <g id="Grupo_389" data-name="Grupo 389">
              <g id="Grupo_388" data-name="Grupo 388" clip-path="url(#clip-path-16)">
                <path id="Caminho_476" data-name="Caminho 476" d="M478.764,329.37h-68.19a9.27,9.27,0,0,1-9.27-9.27V283.717a9.27,9.27,0,0,1,9.27-9.27h68.19a9.27,9.27,0,0,1,9.27,9.27V320.1a9.27,9.27,0,0,1-9.27,9.27" transform="translate(-401.304 -274.447)" fill="#e6e6e6"/>
              </g>
            </g>
          </g>
          <path id="Caminho_477" data-name="Caminho 477" d="M476.741,326.336h-68.19a9.27,9.27,0,0,1-9.27-9.269V280.682a9.27,9.27,0,0,1,9.27-9.269h68.19a9.27,9.27,0,0,1,9.27,9.269v36.384a9.27,9.27,0,0,1-9.27,9.269" transform="translate(-158.449 -107.707)" fill="#108141"/>
        </g>
      </g>
      <text id="PARTICIPAR" transform="translate(259.956 187.43)" fill="#f2f2f2" font-size="6" font-family="Poppins-ExtraBold, Poppins" font-weight="800"><tspan x="0" y="0" letter-spacing="0.2em">PA</tspan><tspan y="0" letter-spacing="0.199em">R</tspan><tspan y="0" letter-spacing="0.2em">TI</tspan><tspan y="0" letter-spacing="0.199em">C</tspan><tspan y="0" letter-spacing="0.2em">IPA</tspan><tspan y="0">R</tspan></text>
      <text id="POLITICAMENTE" transform="translate(250.528 196.22)" fill="#f2f2f2" font-size="6" font-family="Poppins-ExtraBold, Poppins" font-weight="800"><tspan x="0" y="0" letter-spacing="0.2em">POL</tspan><tspan y="0" letter-spacing="0.199em">I</tspan><tspan y="0" letter-spacing="0.2em">TICAMENT</tspan><tspan y="0">E</tspan></text>
    </g>
  </g>
</svg>
