<svg xmlns="http://www.w3.org/2000/svg" xmlns:xlink="http://www.w3.org/1999/xlink" width="502.958" height="480.02" viewBox="0 0 502.958 480.02">
  <defs>
    <clipPath id="clip-path">
      <rect id="Retângulo_132" data-name="Retângulo 132" width="502.438" height="480.02" fill="none"/>
    </clipPath>
    <clipPath id="clip-path-2">
      <rect id="Retângulo_127" data-name="Retângulo 127" width="480.02" height="480.02" fill="none"/>
    </clipPath>
    <clipPath id="clip-path-3">
      <rect id="Retângulo_128" data-name="Retângulo 128" width="358.096" height="358.096" fill="none"/>
    </clipPath>
    <clipPath id="clip-path-4">
      <rect id="Retângulo_129" data-name="Retângulo 129" width="258.209" height="258.209" fill="none"/>
    </clipPath>
    <clipPath id="clip-path-5">
      <rect id="Retângulo_130" data-name="Retângulo 130" width="158.368" height="116.181" fill="none"/>
    </clipPath>
    <clipPath id="clip-path-7">
      <rect id="Retângulo_133" data-name="Retângulo 133" width="98.37" height="62.295" fill="none"/>
    </clipPath>
    <clipPath id="clip-path-9">
      <rect id="Retângulo_135" data-name="Retângulo 135" width="101.882" height="64.519" fill="none"/>
    </clipPath>
    <clipPath id="clip-path-13">
      <rect id="Retângulo_139" data-name="Retângulo 139" width="119.462" height="75.651" fill="none"/>
    </clipPath>
    <clipPath id="clip-path-15">
      <rect id="Retângulo_141" data-name="Retângulo 141" width="132.323" height="83.796" fill="none"/>
    </clipPath>
  </defs>
  <g id="Grupo_1861" data-name="Grupo 1861" transform="translate(3416.649 843.596)">
    <g id="Grupo_1860" data-name="Grupo 1860" transform="translate(-298.649 -426.596)">
      <g id="Grupo_1859" data-name="Grupo 1859" transform="translate(-3118 -417)">
        <g id="Grupo_366" data-name="Grupo 366" clip-path="url(#clip-path)">
          <g id="Grupo_356" data-name="Grupo 356" transform="translate(22.418)" opacity="0.38">
            <g id="Grupo_355" data-name="Grupo 355">
              <g id="Grupo_354" data-name="Grupo 354" clip-path="url(#clip-path-2)">
                <path id="Caminho_463" data-name="Caminho 463" d="M504.381,240.01c0,132.553-107.456,240.01-240.009,240.01S24.361,372.564,24.361,240.01,131.817,0,264.372,0,504.381,107.456,504.381,240.01" transform="translate(-24.361)" fill="#e6e6e6"/>
              </g>
            </g>
          </g>
          <g id="Grupo_359" data-name="Grupo 359" transform="translate(83.379 60.962)" opacity="0.49">
            <g id="Grupo_358" data-name="Grupo 358">
              <g id="Grupo_357" data-name="Grupo 357" clip-path="url(#clip-path-3)">
                <path id="Caminho_464" data-name="Caminho 464" d="M448.7,245.294A179.048,179.048,0,1,1,269.654,66.246,179.049,179.049,0,0,1,448.7,245.294" transform="translate(-90.606 -66.246)" fill="#e6e6e6"/>
              </g>
            </g>
          </g>
          <g id="Grupo_362" data-name="Grupo 362" transform="translate(133.323 110.905)" opacity="0.63">
            <g id="Grupo_361" data-name="Grupo 361">
              <g id="Grupo_360" data-name="Grupo 360" clip-path="url(#clip-path-4)">
                <path id="Caminho_465" data-name="Caminho 465" d="M403.088,249.623a129.1,129.1,0,1,1-129.1-129.105,129.1,129.1,0,0,1,129.1,129.105" transform="translate(-144.879 -120.518)" fill="#dbdbdb"/>
              </g>
            </g>
          </g>
          <g id="Grupo_365" data-name="Grupo 365" transform="translate(194.483 174.32)" style="mix-blend-mode: multiply;isolation: isolate">
            <g id="Grupo_364" data-name="Grupo 364">
              <g id="Grupo_363" data-name="Grupo 363" clip-path="url(#clip-path-5)">
                <path id="Caminho_466" data-name="Caminho 466" d="M363.612,291.023h-137.2l-15.073,14.586V195.524a6.094,6.094,0,0,1,6.095-6.095H363.612a6.094,6.094,0,0,1,6.095,6.095v89.4a6.094,6.094,0,0,1-6.095,6.095" transform="translate(-211.339 -189.429)" fill="#e6e6e6"/>
              </g>
            </g>
          </g>
          <path id="Caminho_467" data-name="Caminho 467" d="M357.65,283.642H220.45l-15.073,14.586V188.143a6.094,6.094,0,0,1,6.095-6.095H357.65a6.094,6.094,0,0,1,6.095,6.095v89.4a6.094,6.094,0,0,1-6.095,6.095" transform="translate(-16.381 -14.52)" fill="#3e6d93"/>
          <rect id="Retângulo_131" data-name="Retângulo 131" width="144.469" height="7.896" transform="translate(195.945 224.787)" fill="#ffa800"/>
        </g>
        <path id="Caminho_602" data-name="Caminho 602" d="M7.246-2.725A2.852,2.852,0,0,1,6.886-1.3,2.6,2.6,0,0,1,5.8-.278,3.757,3.757,0,0,1,4.024.106H2.84v2.9H.448v-8.6H4.024a3.884,3.884,0,0,1,1.764.366A2.517,2.517,0,0,1,6.88-4.215,2.97,2.97,0,0,1,7.246-2.725ZM3.792-1.8q1.013,0,1.013-.928t-1.013-.94H2.84V-1.8ZM15.009,3.011,13.3-.162h-.256V3.011H10.652v-8.6h3.772a3.9,3.9,0,0,1,1.758.36,2.522,2.522,0,0,1,1.086.989,2.749,2.749,0,0,1,.366,1.41,2.562,2.562,0,0,1-.482,1.544,2.605,2.605,0,0,1-1.41.946l1.941,3.357ZM13.044-1.8h1.184a1.027,1.027,0,0,0,.732-.232A.882.882,0,0,0,15.2-2.7a.858.858,0,0,0-.25-.653,1.014,1.014,0,0,0-.726-.238H13.044ZM25.286,3.1a4.468,4.468,0,0,1-2.221-.568A4.229,4.229,0,0,1,21.46.955a4.407,4.407,0,0,1-.592-2.276A4.407,4.407,0,0,1,21.46-3.6a4.185,4.185,0,0,1,1.605-1.568,4.506,4.506,0,0,1,2.221-.561,4.5,4.5,0,0,1,2.228.561A4.153,4.153,0,0,1,29.107-3.6a4.442,4.442,0,0,1,.586,2.276A4.442,4.442,0,0,1,29.107.955a4.185,4.185,0,0,1-1.6,1.575A4.468,4.468,0,0,1,25.286,3.1Zm0-2.221a1.836,1.836,0,0,0,1.446-.6,2.32,2.32,0,0,0,.531-1.6,2.334,2.334,0,0,0-.531-1.617,1.845,1.845,0,0,0-1.446-.592,1.841,1.841,0,0,0-1.452.592,2.351,2.351,0,0,0-.525,1.617A2.332,2.332,0,0,0,23.834.283,1.841,1.841,0,0,0,25.286.875ZM32.915-1.31a4.733,4.733,0,0,1,.531-2.264,3.814,3.814,0,0,1,1.507-1.55A4.463,4.463,0,0,1,37.2-5.679a4.259,4.259,0,0,1,2.71.86,3.9,3.9,0,0,1,1.416,2.337H38.749a1.725,1.725,0,0,0-.641-.745,1.743,1.743,0,0,0-.946-.256,1.637,1.637,0,0,0-1.324.592,2.387,2.387,0,0,0-.494,1.581A2.406,2.406,0,0,0,35.838.283a1.637,1.637,0,0,0,1.324.592,1.743,1.743,0,0,0,.946-.256,1.725,1.725,0,0,0,.641-.745h2.575a3.9,3.9,0,0,1-1.416,2.337,4.259,4.259,0,0,1-2.71.86,4.463,4.463,0,0,1-2.246-.555A3.814,3.814,0,0,1,33.446.967,4.76,4.76,0,0,1,32.915-1.31ZM47.293-3.677v1.4h2.746V-.455H47.293v1.55h3.112V3.011H44.9v-8.6h5.5v1.916ZM57.277,3.1a4.034,4.034,0,0,1-2.466-.714A2.58,2.58,0,0,1,53.774.338h2.551A.952.952,0,0,0,56.593,1a.971.971,0,0,0,1.141.043.546.546,0,0,0,.214-.458A.647.647,0,0,0,57.594,0a6.238,6.238,0,0,0-1.147-.464,10.332,10.332,0,0,1-1.361-.543,2.611,2.611,0,0,1-.9-.769A2.133,2.133,0,0,1,53.8-3.1a2.414,2.414,0,0,1,.415-1.422,2.568,2.568,0,0,1,1.147-.9,4.281,4.281,0,0,1,1.66-.305,3.788,3.788,0,0,1,2.4.7,2.524,2.524,0,0,1,.958,1.971h-2.6a.766.766,0,0,0-.238-.586.855.855,0,0,0-.58-.2.62.62,0,0,0-.439.159.586.586,0,0,0-.171.452.557.557,0,0,0,.189.421,1.737,1.737,0,0,0,.47.305q.281.128.83.323a10.2,10.2,0,0,1,1.349.555,2.756,2.756,0,0,1,.915.769A1.977,1.977,0,0,1,60.487.4,2.533,2.533,0,0,1,60.1,1.778a2.64,2.64,0,0,1-1.111.964A3.875,3.875,0,0,1,57.277,3.1Zm10,0a4.034,4.034,0,0,1-2.466-.714A2.58,2.58,0,0,1,63.77.338h2.551A.952.952,0,0,0,66.59,1a.971.971,0,0,0,1.141.043.546.546,0,0,0,.214-.458A.647.647,0,0,0,67.591,0a6.238,6.238,0,0,0-1.147-.464,10.332,10.332,0,0,1-1.361-.543,2.611,2.611,0,0,1-.9-.769A2.133,2.133,0,0,1,63.795-3.1a2.414,2.414,0,0,1,.415-1.422,2.568,2.568,0,0,1,1.147-.9,4.281,4.281,0,0,1,1.66-.305,3.788,3.788,0,0,1,2.4.7,2.524,2.524,0,0,1,.958,1.971h-2.6a.766.766,0,0,0-.238-.586.855.855,0,0,0-.58-.2.62.62,0,0,0-.439.159.586.586,0,0,0-.171.452.557.557,0,0,0,.189.421A1.737,1.737,0,0,0,67-2.5q.281.128.83.323a10.2,10.2,0,0,1,1.349.555,2.756,2.756,0,0,1,.915.769A1.977,1.977,0,0,1,70.483.4,2.533,2.533,0,0,1,70.1,1.778a2.64,2.64,0,0,1-1.111.964A3.875,3.875,0,0,1,67.273,3.1Zm10.887,0a4.468,4.468,0,0,1-2.221-.568A4.23,4.23,0,0,1,74.334.955a4.407,4.407,0,0,1-.592-2.276A4.407,4.407,0,0,1,74.334-3.6a4.185,4.185,0,0,1,1.605-1.568,4.506,4.506,0,0,1,2.221-.561,4.5,4.5,0,0,1,2.228.561A4.153,4.153,0,0,1,81.981-3.6a4.442,4.442,0,0,1,.586,2.276A4.442,4.442,0,0,1,81.981.955a4.185,4.185,0,0,1-1.6,1.575A4.468,4.468,0,0,1,78.161,3.1Zm0-2.221a1.836,1.836,0,0,0,1.446-.6,2.32,2.32,0,0,0,.531-1.6,2.334,2.334,0,0,0-.531-1.617,1.845,1.845,0,0,0-1.446-.592,1.841,1.841,0,0,0-1.452.592,2.351,2.351,0,0,0-.525,1.617A2.332,2.332,0,0,0,76.708.283,1.841,1.841,0,0,0,78.161.875ZM89.329,3.1a4.034,4.034,0,0,1-2.466-.714A2.58,2.58,0,0,1,85.826.338h2.551A.952.952,0,0,0,88.645,1a.971.971,0,0,0,1.141.043A.546.546,0,0,0,90,.582.647.647,0,0,0,89.646,0,6.238,6.238,0,0,0,88.5-.467a10.332,10.332,0,0,1-1.361-.543,2.611,2.611,0,0,1-.9-.769A2.133,2.133,0,0,1,85.85-3.1a2.414,2.414,0,0,1,.415-1.422,2.568,2.568,0,0,1,1.147-.9,4.281,4.281,0,0,1,1.66-.305,3.788,3.788,0,0,1,2.4.7,2.524,2.524,0,0,1,.958,1.971h-2.6a.766.766,0,0,0-.238-.586.855.855,0,0,0-.58-.2.62.62,0,0,0-.439.159.586.586,0,0,0-.171.452.557.557,0,0,0,.189.421,1.737,1.737,0,0,0,.47.305q.281.128.83.323a10.2,10.2,0,0,1,1.349.555,2.756,2.756,0,0,1,.915.769A1.977,1.977,0,0,1,92.539.4a2.533,2.533,0,0,1-.384,1.379,2.64,2.64,0,0,1-1.111.964A3.875,3.875,0,0,1,89.329,3.1Z" transform="translate(216.768 208.905)" fill="#fff"/>
        <path id="Caminho_600" data-name="Caminho 600" d="M3.853-5.594a4.974,4.974,0,0,1,2.374.543A3.816,3.816,0,0,1,7.8-3.531,4.477,4.477,0,0,1,8.345-1.3,4.413,4.413,0,0,1,7.79.924,3.937,3.937,0,0,1,6.215,2.456a4.858,4.858,0,0,1-2.362.555H.448v-8.6ZM3.67.9A2.282,2.282,0,0,0,5.318.326a2.144,2.144,0,0,0,.6-1.623,2.181,2.181,0,0,0-.6-1.642,2.268,2.268,0,0,0-1.648-.58H2.84V.9ZM14.252-3.677v1.4H17V-.455H14.252v1.55h3.112V3.011h-5.5v-8.6h5.5v1.916ZM32.243-5.594v1.9H29.949v6.7H27.556v-6.7h-2.27v-1.9Zm7.689,8.6L38.224-.162h-.256V3.011H35.575v-8.6h3.772a3.9,3.9,0,0,1,1.758.36,2.522,2.522,0,0,1,1.086.989,2.749,2.749,0,0,1,.366,1.41,2.562,2.562,0,0,1-.482,1.544,2.605,2.605,0,0,1-1.41.946l1.941,3.357ZM37.968-1.8h1.184a1.027,1.027,0,0,0,.732-.232.882.882,0,0,0,.244-.671.858.858,0,0,0-.25-.653,1.014,1.014,0,0,0-.726-.238H37.968ZM51.516,1.608H48.465L48,3.011H45.486l3.137-8.6h2.758l3.125,8.6H51.98Zm-.6-1.831L49.99-3.006,49.075-.223Zm12.3-1.184a2.026,2.026,0,0,1,1.2.751A2.115,2.115,0,0,1,64.869.668a2.107,2.107,0,0,1-.757,1.721,3.255,3.255,0,0,1-2.124.622h-4.26v-8.6h4.125a3.283,3.283,0,0,1,2.069.586,1.97,1.97,0,0,1,.751,1.648,1.986,1.986,0,0,1-.4,1.263A1.97,1.97,0,0,1,63.221-1.407Zm-3.1-.769h1.208q.9,0,.9-.745,0-.769-.9-.769H60.121Zm1.391,3.259q.9,0,.9-.757a.751.751,0,0,0-.238-.6A1,1,0,0,0,61.5-.48H60.121V1.083ZM73.8,1.608H70.752l-.464,1.4H67.774l3.137-8.6h2.758l3.125,8.6H74.267Zm-.6-1.831-.928-2.783L71.362-.223Zm9.2,1.4h2.673V3.011H80.016v-8.6h2.392ZM96.139-5.594v8.6H93.747V-.443H90.83V3.011H88.438v-8.6H90.83v3.234h2.917V-5.594Zm7.921,8.69a4.468,4.468,0,0,1-2.221-.568A4.23,4.23,0,0,1,100.234.955a4.407,4.407,0,0,1-.592-2.276,4.407,4.407,0,0,1,.592-2.276,4.185,4.185,0,0,1,1.605-1.568,4.506,4.506,0,0,1,2.221-.561,4.5,4.5,0,0,1,2.228.561A4.153,4.153,0,0,1,107.881-3.6a4.442,4.442,0,0,1,.586,2.276,4.442,4.442,0,0,1-.586,2.276,4.185,4.185,0,0,1-1.6,1.575A4.468,4.468,0,0,1,104.061,3.1Zm0-2.221a1.836,1.836,0,0,0,1.446-.6,2.32,2.32,0,0,0,.531-1.6,2.334,2.334,0,0,0-.531-1.617,1.845,1.845,0,0,0-1.446-.592,1.841,1.841,0,0,0-1.452.592,2.351,2.351,0,0,0-.525,1.617,2.332,2.332,0,0,0,.525,1.605A1.841,1.841,0,0,0,104.061.875Z" transform="translate(207.889 225.146)" fill="#fff"/>
        <g id="Grupo_371" data-name="Grupo 371" clip-path="url(#clip-path)">
          <g id="Grupo_370" data-name="Grupo 370" transform="translate(336.502 52.536)" style="mix-blend-mode: multiply;isolation: isolate">
            <g id="Grupo_369" data-name="Grupo 369">
              <g id="Grupo_368" data-name="Grupo 368" clip-path="url(#clip-path-7)">
                <path id="Caminho_468" data-name="Caminho 468" d="M449.895,119.384H379.811a14.143,14.143,0,0,1-14.143-14.143V71.232a14.143,14.143,0,0,1,14.143-14.143h70.084a14.143,14.143,0,0,1,14.143,14.143v34.008a14.143,14.143,0,0,1-14.143,14.143" transform="translate(-365.668 -57.089)" fill="#e6e6e6"/>
              </g>
            </g>
          </g>
          <path id="Caminho_469" data-name="Caminho 469" d="M448.391,117.128H378.307a14.143,14.143,0,0,1-14.143-14.144V68.976a14.143,14.143,0,0,1,14.143-14.143h70.084a14.144,14.144,0,0,1,14.144,14.143v34.007a14.144,14.144,0,0,1-14.144,14.144" transform="translate(-29.046 -4.373)" fill="#6dafcc"/>
        </g>
        <path id="Caminho_598" data-name="Caminho 598" d="M6.041-2.779A1.385,1.385,0,0,0,5.474-3.3a1.849,1.849,0,0,0-.848-.183A1.8,1.8,0,0,0,3.2-2.9a2.289,2.289,0,0,0-.519,1.575A2.352,2.352,0,0,0,3.24.364a2.136,2.136,0,0,0,1.617.58A1.845,1.845,0,0,0,6.652-.191h-2.4V-1.912H8.714V.407a4.379,4.379,0,0,1-.824,1.282,4.223,4.223,0,0,1-1.373.983,4.452,4.452,0,0,1-1.892.384A4.615,4.615,0,0,1,2.337,2.5,3.862,3.862,0,0,1,.8.95,4.673,4.673,0,0,1,.256-1.326,4.647,4.647,0,0,1,.8-3.591a3.873,3.873,0,0,1,1.532-1.55A4.581,4.581,0,0,1,4.613-5.7,4.412,4.412,0,0,1,7.3-4.915,3.315,3.315,0,0,1,8.617-2.779Zm8.58-.915v1.4h2.746V-.472H14.622v1.55h3.112V2.994h-5.5v-8.6h5.5v1.916ZM25.717,2.994,24.008-.179h-.256V2.994H21.359v-8.6h3.772a3.9,3.9,0,0,1,1.758.36,2.522,2.522,0,0,1,1.086.989,2.749,2.749,0,0,1,.366,1.41,2.562,2.562,0,0,1-.482,1.544,2.605,2.605,0,0,1-1.41.946L28.39,2.994ZM23.752-1.815h1.184a1.027,1.027,0,0,0,.732-.232.882.882,0,0,0,.244-.671.858.858,0,0,0-.25-.653,1.014,1.014,0,0,0-.726-.238H23.752Zm10.5-3.8v8.6H31.856v-8.6Zm8.153,8.6L40.693-.179h-.256V2.994H38.044v-8.6h3.772a3.9,3.9,0,0,1,1.758.36,2.522,2.522,0,0,1,1.086.989,2.749,2.749,0,0,1,.366,1.41,2.562,2.562,0,0,1-.482,1.544,2.605,2.605,0,0,1-1.41.946l1.941,3.357ZM40.437-1.815H41.62a1.027,1.027,0,0,0,.732-.232.882.882,0,0,0,.244-.671.858.858,0,0,0-.25-.653,1.014,1.014,0,0,0-.726-.238H40.437Z" transform="translate(359.861 80.526)" fill="#f2f2f2"/>
        <g id="Grupo_376" data-name="Grupo 376" clip-path="url(#clip-path)">
          <g id="Grupo_375" data-name="Grupo 375" transform="translate(204.715 357.795)" style="mix-blend-mode: multiply;isolation: isolate">
            <g id="Grupo_374" data-name="Grupo 374">
              <g id="Grupo_373" data-name="Grupo 373" clip-path="url(#clip-path-9)">
                <path id="Caminho_470" data-name="Caminho 470" d="M310.2,453.325H236.6a14.143,14.143,0,0,1-14.144-14.143V402.95A14.144,14.144,0,0,1,236.6,388.806h73.6A14.143,14.143,0,0,1,324.34,402.95v36.232A14.143,14.143,0,0,1,310.2,453.325" transform="translate(-222.458 -388.806)" fill="#e6e6e6"/>
              </g>
            </g>
          </g>
          <path id="Caminho_471" data-name="Caminho 471" d="M308.639,450.989h-73.6A14.144,14.144,0,0,1,220.9,436.846V400.614a14.144,14.144,0,0,1,14.144-14.144h73.6a14.144,14.144,0,0,1,14.144,14.144v36.232a14.144,14.144,0,0,1-14.144,14.143" transform="translate(-17.619 -30.825)" fill="#f4bb2a"/>
        </g>
        <path id="Caminho_605" data-name="Caminho 605" d="M2.84-3.677v1.4H5.587V-.455H2.84v1.55H5.953V3.011H.448v-8.6h5.5v1.916ZM17.548,3.011H15.156L11.97-1.8V3.011H9.578v-8.6H11.97l3.186,4.87v-4.87h2.392ZM24.6,3.1a4.034,4.034,0,0,1-2.466-.714A2.58,2.58,0,0,1,21.1.338h2.551A.952.952,0,0,0,23.919,1a.971.971,0,0,0,1.141.043.546.546,0,0,0,.214-.458A.647.647,0,0,0,24.92,0a6.238,6.238,0,0,0-1.147-.464,10.332,10.332,0,0,1-1.361-.543,2.611,2.611,0,0,1-.9-.769A2.133,2.133,0,0,1,21.124-3.1a2.414,2.414,0,0,1,.415-1.422,2.568,2.568,0,0,1,1.147-.9,4.281,4.281,0,0,1,1.66-.305,3.788,3.788,0,0,1,2.4.7A2.524,2.524,0,0,1,27.7-3.055H25.1a.766.766,0,0,0-.238-.586.855.855,0,0,0-.58-.2.62.62,0,0,0-.439.159.586.586,0,0,0-.171.452.557.557,0,0,0,.189.421,1.737,1.737,0,0,0,.47.305q.281.128.83.323a10.2,10.2,0,0,1,1.349.555,2.756,2.756,0,0,1,.915.769A1.977,1.977,0,0,1,27.813.4a2.533,2.533,0,0,1-.384,1.379,2.64,2.64,0,0,1-1.111.964A3.875,3.875,0,0,1,24.6,3.1Zm9.154-8.69v8.6H31.365v-8.6Zm11.766,8.6H43.131L39.945-1.8V3.011H37.553v-8.6h2.392l3.186,4.87v-4.87h2.392Zm9.24-1.4H51.711l-.464,1.4H48.733l3.137-8.6h2.758l3.125,8.6H55.226Zm-.6-1.831-.928-2.783L52.321-.223ZM65.333,3.011,63.624-.162h-.256V3.011H60.975v-8.6h3.771a3.9,3.9,0,0,1,1.758.36,2.522,2.522,0,0,1,1.086.989,2.749,2.749,0,0,1,.366,1.41,2.562,2.562,0,0,1-.482,1.544,2.605,2.605,0,0,1-1.41.946l1.941,3.357ZM63.367-1.8h1.184a1.027,1.027,0,0,0,.732-.232.882.882,0,0,0,.244-.671.858.858,0,0,0-.25-.653,1.014,1.014,0,0,0-.726-.238H63.367Z" transform="translate(217.131 388.584)" fill="#f2f2f2"/>
        <g id="Grupo_381" data-name="Grupo 381" clip-path="url(#clip-path)">
          <g id="Grupo_380" data-name="Grupo 380" transform="translate(105.809 66.535)" style="mix-blend-mode: multiply;isolation: isolate">
            <g id="Grupo_379" data-name="Grupo 379">
              <g id="Grupo_378" data-name="Grupo 378" clip-path="url(#clip-path-9)">
                <path id="Caminho_472" data-name="Caminho 472" d="M202.718,136.821h-73.6a14.143,14.143,0,0,1-14.144-14.143V86.446A14.144,14.144,0,0,1,129.123,72.3h73.6a14.143,14.143,0,0,1,14.143,14.144v36.232a14.143,14.143,0,0,1-14.143,14.143" transform="translate(-114.98 -72.302)" fill="#e6e6e6"/>
              </g>
            </g>
          </g>
          <path id="Caminho_473" data-name="Caminho 473" d="M201.161,134.485h-73.6a14.144,14.144,0,0,1-14.144-14.144V84.11a14.144,14.144,0,0,1,14.144-14.144h73.6A14.143,14.143,0,0,1,215.3,84.11v36.231a14.143,14.143,0,0,1-14.143,14.144" transform="translate(-9.047 -5.581)" fill="#1b8992"/>
        </g>
        <path id="Caminho_599" data-name="Caminho 599" d="M6.094,1.608H3.042l-.464,1.4H.064L3.2-5.594H5.959l3.125,8.6H6.557ZM5.5-.223,4.568-3.006,3.652-.223ZM15.553,3.1a4.034,4.034,0,0,1-2.466-.714A2.58,2.58,0,0,1,12.05.338H14.6A.952.952,0,0,0,14.869,1a.971.971,0,0,0,1.141.043.546.546,0,0,0,.214-.458A.647.647,0,0,0,15.87,0a6.238,6.238,0,0,0-1.147-.464,10.333,10.333,0,0,1-1.361-.543,2.611,2.611,0,0,1-.9-.769A2.133,2.133,0,0,1,12.074-3.1a2.414,2.414,0,0,1,.415-1.422,2.568,2.568,0,0,1,1.147-.9,4.281,4.281,0,0,1,1.66-.305,3.788,3.788,0,0,1,2.4.7,2.524,2.524,0,0,1,.958,1.971h-2.6a.766.766,0,0,0-.238-.586.855.855,0,0,0-.58-.2.62.62,0,0,0-.439.159.586.586,0,0,0-.171.452.557.557,0,0,0,.189.421,1.737,1.737,0,0,0,.47.305q.281.128.83.323a10.2,10.2,0,0,1,1.349.555,2.756,2.756,0,0,1,.915.769A1.977,1.977,0,0,1,18.763.4a2.533,2.533,0,0,1-.384,1.379,2.64,2.64,0,0,1-1.111.964A3.875,3.875,0,0,1,15.553,3.1Zm10,0a4.034,4.034,0,0,1-2.466-.714A2.58,2.58,0,0,1,22.046.338H24.6A.952.952,0,0,0,24.866,1a.971.971,0,0,0,1.141.043A.546.546,0,0,0,26.22.582.647.647,0,0,0,25.866,0a6.238,6.238,0,0,0-1.147-.464,10.333,10.333,0,0,1-1.361-.543,2.611,2.611,0,0,1-.9-.769A2.132,2.132,0,0,1,22.071-3.1a2.414,2.414,0,0,1,.415-1.422,2.568,2.568,0,0,1,1.147-.9,4.281,4.281,0,0,1,1.66-.305,3.788,3.788,0,0,1,2.4.7,2.524,2.524,0,0,1,.958,1.971h-2.6a.766.766,0,0,0-.238-.586.855.855,0,0,0-.58-.2.62.62,0,0,0-.439.159.586.586,0,0,0-.171.452.557.557,0,0,0,.189.421,1.737,1.737,0,0,0,.47.305q.281.128.83.323a10.2,10.2,0,0,1,1.349.555,2.756,2.756,0,0,1,.915.769A1.977,1.977,0,0,1,28.759.4a2.533,2.533,0,0,1-.384,1.379,2.64,2.64,0,0,1-1.111.964A3.875,3.875,0,0,1,25.549,3.1Zm9.142-8.69v8.6H32.3v-8.6ZM41.746,3.1a4.034,4.034,0,0,1-2.466-.714A2.58,2.58,0,0,1,38.243.338h2.551A.952.952,0,0,0,41.062,1,.971.971,0,0,0,42.2,1.04a.546.546,0,0,0,.214-.458A.647.647,0,0,0,42.063,0a6.238,6.238,0,0,0-1.147-.464,10.333,10.333,0,0,1-1.361-.543,2.611,2.611,0,0,1-.9-.769A2.133,2.133,0,0,1,38.267-3.1a2.414,2.414,0,0,1,.415-1.422,2.568,2.568,0,0,1,1.147-.9,4.281,4.281,0,0,1,1.66-.305,3.788,3.788,0,0,1,2.4.7,2.524,2.524,0,0,1,.958,1.971h-2.6a.766.766,0,0,0-.238-.586.855.855,0,0,0-.58-.2.62.62,0,0,0-.439.159.586.586,0,0,0-.171.452.557.557,0,0,0,.189.421,1.737,1.737,0,0,0,.47.305q.281.128.83.323a10.2,10.2,0,0,1,1.349.555,2.756,2.756,0,0,1,.915.769A1.977,1.977,0,0,1,44.956.4a2.533,2.533,0,0,1-.384,1.379,2.64,2.64,0,0,1-1.111.964A3.875,3.875,0,0,1,41.746,3.1Zm13.231-8.69v1.9H52.682v6.7H50.29v-6.7h-2.27v-1.9Zm5.724,0v8.6H58.309v-8.6Zm8.165,8.6L67.158-.162H66.9V3.011H64.509v-8.6h3.772a3.9,3.9,0,0,1,1.758.36,2.522,2.522,0,0,1,1.086.989,2.749,2.749,0,0,1,.366,1.41,2.562,2.562,0,0,1-.482,1.544,2.605,2.605,0,0,1-1.41.946l1.941,3.357ZM66.9-1.8h1.184a1.027,1.027,0,0,0,.732-.232.882.882,0,0,0,.244-.671.858.858,0,0,0-.25-.653,1.014,1.014,0,0,0-.726-.238H66.9Z" transform="translate(116.175 95.561)" fill="#f2f2f2"/>
        <g id="Grupo_386" data-name="Grupo 386" clip-path="url(#clip-path)">
          <g id="Grupo_385" data-name="Grupo 385" transform="translate(1.681 247.312)" style="mix-blend-mode: multiply;isolation: isolate">
            <g id="Grupo_384" data-name="Grupo 384">
              <g id="Grupo_383" data-name="Grupo 383" clip-path="url(#clip-path-13)">
                <path id="Caminho_474" data-name="Caminho 474" d="M107.146,344.4H15.97A14.143,14.143,0,0,1,1.827,330.255V282.89A14.143,14.143,0,0,1,15.97,268.746h91.176a14.143,14.143,0,0,1,14.143,14.144v47.365A14.143,14.143,0,0,1,107.146,344.4" transform="translate(-1.827 -268.747)" fill="#e6e6e6"/>
              </g>
            </g>
          </g>
          <path id="Caminho_475" data-name="Caminho 475" d="M105.319,341.659H14.143A14.143,14.143,0,0,1,0,327.515V280.151a14.143,14.143,0,0,1,14.143-14.144h91.176a14.143,14.143,0,0,1,14.143,14.144v47.364a14.143,14.143,0,0,1-14.143,14.144" transform="translate(0 -21.217)" fill="#29696d"/>
        </g>
        <path id="Caminho_601" data-name="Caminho 601" d="M2.84-5.594v8.6H.448v-8.6Zm11.778,8.6H12.226L9.041-1.8V3.011H6.648v-8.6H9.041l3.186,4.87v-4.87h2.392ZM26.8-5.594l-2.966,8.6H20.77l-2.978-8.6h2.563L22.308.619l1.941-6.213Zm5.566,1.916v1.4h2.746V-.455H32.365v1.55h3.112V3.011h-5.5v-8.6h5.5v1.916ZM42.35,3.1a4.034,4.034,0,0,1-2.466-.714A2.58,2.58,0,0,1,38.847.338H41.4A.952.952,0,0,0,41.666,1a.971.971,0,0,0,1.141.043.546.546,0,0,0,.214-.458A.647.647,0,0,0,42.667,0,6.238,6.238,0,0,0,41.52-.467a10.333,10.333,0,0,1-1.361-.543,2.611,2.611,0,0,1-.9-.769A2.133,2.133,0,0,1,38.871-3.1a2.414,2.414,0,0,1,.415-1.422,2.568,2.568,0,0,1,1.147-.9,4.281,4.281,0,0,1,1.66-.305,3.788,3.788,0,0,1,2.4.7,2.524,2.524,0,0,1,.958,1.971h-2.6a.766.766,0,0,0-.238-.586.855.855,0,0,0-.58-.2.62.62,0,0,0-.439.159.586.586,0,0,0-.171.452.557.557,0,0,0,.189.421,1.737,1.737,0,0,0,.47.305q.281.128.83.323a10.2,10.2,0,0,1,1.349.555,2.756,2.756,0,0,1,.915.769A1.977,1.977,0,0,1,45.56.4a2.533,2.533,0,0,1-.384,1.379,2.64,2.64,0,0,1-1.111.964A3.875,3.875,0,0,1,42.35,3.1Zm13.243-8.69v1.9H53.3v6.7H50.906v-6.7h-2.27v-1.9Zm5.724,0v8.6H58.925v-8.6Zm9.288,2.832a1.385,1.385,0,0,0-.568-.525,1.849,1.849,0,0,0-.848-.183,1.8,1.8,0,0,0-1.422.586,2.289,2.289,0,0,0-.519,1.575A2.352,2.352,0,0,0,67.8.381a2.136,2.136,0,0,0,1.617.58A1.845,1.845,0,0,0,71.216-.174h-2.4V-1.9h4.467V.424a4.379,4.379,0,0,1-.824,1.282,4.223,4.223,0,0,1-1.373.983,4.452,4.452,0,0,1-1.892.384A4.615,4.615,0,0,1,66.9,2.517,3.862,3.862,0,0,1,65.363.967,4.673,4.673,0,0,1,64.82-1.31a4.647,4.647,0,0,1,.543-2.264,3.873,3.873,0,0,1,1.532-1.55,4.581,4.581,0,0,1,2.282-.555,4.412,4.412,0,0,1,2.685.781,3.315,3.315,0,0,1,1.318,2.136Zm11.632,4.37H79.186l-.464,1.4H76.208l3.137-8.6H82.1l3.125,8.6H82.7Zm-.6-1.831-.928-2.783L79.8-.223ZM92.807,3.011,91.1-.162h-.256V3.011H88.45v-8.6h3.772a3.9,3.9,0,0,1,1.758.36,2.522,2.522,0,0,1,1.086.989,2.749,2.749,0,0,1,.366,1.41,2.562,2.562,0,0,1-.482,1.544,2.605,2.605,0,0,1-1.41.946L95.48,3.011ZM90.842-1.8h1.184a1.027,1.027,0,0,0,.732-.232A.882.882,0,0,0,93-2.7a.858.858,0,0,0-.25-.653,1.014,1.014,0,0,0-.726-.238H90.842Z" transform="translate(7.537 281.674)" fill="#f2f2f2"/>
        <g id="Grupo_391" data-name="Grupo 391" clip-path="url(#clip-path)">
          <g id="Grupo_390" data-name="Grupo 390" transform="translate(369.296 252.557)" style="mix-blend-mode: multiply;isolation: isolate">
            <g id="Grupo_389" data-name="Grupo 389">
              <g id="Grupo_388" data-name="Grupo 388" clip-path="url(#clip-path-15)">
                <path id="Caminho_476" data-name="Caminho 476" d="M519.484,358.243H415.447A14.143,14.143,0,0,1,401.3,344.1V288.59a14.143,14.143,0,0,1,14.143-14.143H519.484a14.143,14.143,0,0,1,14.143,14.143V344.1a14.143,14.143,0,0,1-14.143,14.143" transform="translate(-401.304 -274.447)" fill="#e6e6e6"/>
              </g>
            </g>
          </g>
          <path id="Caminho_477" data-name="Caminho 477" d="M517.461,355.208H413.424a14.143,14.143,0,0,1-14.143-14.142V285.555a14.143,14.143,0,0,1,14.143-14.142H517.461A14.143,14.143,0,0,1,531.6,285.555v55.511a14.143,14.143,0,0,1-14.143,14.142" transform="translate(-31.847 -21.648)" fill="#108141"/>
        </g>
        <path id="Caminho_603" data-name="Caminho 603" d="M5.435-2.057A2.139,2.139,0,0,1,5.165-.99a1.951,1.951,0,0,1-.815.769A2.818,2.818,0,0,1,3.018.067H2.13V2.246H.336V-4.208H3.018a2.913,2.913,0,0,1,1.323.275,1.888,1.888,0,0,1,.819.76A2.228,2.228,0,0,1,5.435-2.057Zm-2.591.7q.76,0,.76-.7t-.76-.7H2.13v1.4Zm9.227,2.554H9.783L9.435,2.246H7.549L9.9-4.208h2.069l2.343,6.454H12.419ZM11.623-.18l-.7-2.087L10.241-.18ZM20,2.246,18.718-.134h-.192v2.38H16.731V-4.208H19.56a2.925,2.925,0,0,1,1.318.27,1.892,1.892,0,0,1,.815.741,2.062,2.062,0,0,1,.275,1.057,1.921,1.921,0,0,1-.362,1.158,1.954,1.954,0,0,1-1.057.709L22,2.246ZM18.525-1.361h.888a.771.771,0,0,0,.549-.174.662.662,0,0,0,.183-.5.644.644,0,0,0-.188-.49.761.761,0,0,0-.545-.179h-.888ZM29.464-4.208V-2.78H27.743V2.246H25.949V-2.78h-1.7V-4.208Zm4.293,0V2.246H31.964V-4.208ZM36.394-.995a3.55,3.55,0,0,1,.4-1.7,2.86,2.86,0,0,1,1.131-1.163,3.347,3.347,0,0,1,1.684-.417,3.194,3.194,0,0,1,2.032.645A2.927,2.927,0,0,1,42.7-1.874H40.77a1.293,1.293,0,0,0-.481-.558,1.307,1.307,0,0,0-.709-.192,1.228,1.228,0,0,0-.993.444,1.79,1.79,0,0,0-.371,1.185A1.8,1.8,0,0,0,38.587.2a1.228,1.228,0,0,0,.993.444,1.307,1.307,0,0,0,.709-.192,1.293,1.293,0,0,0,.481-.558H42.7a2.927,2.927,0,0,1-1.062,1.753,3.194,3.194,0,0,1-2.032.645,3.347,3.347,0,0,1-1.684-.417A2.86,2.86,0,0,1,36.792.712,3.57,3.57,0,0,1,36.394-.995ZM47.169-4.208V2.246H45.374V-4.208Zm7.955,2.151a2.139,2.139,0,0,1-.27,1.066,1.951,1.951,0,0,1-.815.769,2.818,2.818,0,0,1-1.332.288h-.888V2.246H50.025V-4.208h2.682a2.913,2.913,0,0,1,1.323.275,1.888,1.888,0,0,1,.819.76A2.228,2.228,0,0,1,55.124-2.057Zm-2.591.7q.76,0,.76-.7t-.76-.7h-.714v1.4ZM61.76,1.193H59.472l-.348,1.053H57.238l2.353-6.454H61.66L64,2.246H62.108ZM61.312-.18l-.7-2.087L59.929-.18Zm8.376,2.426L68.406-.134h-.192v2.38H66.42V-4.208h2.829a2.925,2.925,0,0,1,1.318.27,1.892,1.892,0,0,1,.815.741,2.062,2.062,0,0,1,.275,1.057,1.921,1.921,0,0,1-.362,1.158,1.954,1.954,0,0,1-1.057.709l1.456,2.517ZM68.214-1.361H69.1a.77.77,0,0,0,.549-.174.662.662,0,0,0,.183-.5.644.644,0,0,0-.188-.49.761.761,0,0,0-.545-.179h-.888Z" transform="translate(396.788 283.714)" fill="#f2f2f2"/>
        <path id="Caminho_604" data-name="Caminho 604" d="M5.435-2.044a2.139,2.139,0,0,1-.27,1.066,1.951,1.951,0,0,1-.815.769A2.818,2.818,0,0,1,3.018.08H2.13V2.258H.336V-4.2H3.018a2.913,2.913,0,0,1,1.323.275,1.888,1.888,0,0,1,.819.76A2.228,2.228,0,0,1,5.435-2.044Zm-2.591.7q.76,0,.76-.7t-.76-.7H2.13v1.4Zm8.239,3.671A3.351,3.351,0,0,1,9.417,1.9,3.172,3.172,0,0,1,8.213.716,3.305,3.305,0,0,1,7.769-.991,3.305,3.305,0,0,1,8.213-2.7a3.139,3.139,0,0,1,1.2-1.176A3.38,3.38,0,0,1,11.083-4.3a3.372,3.372,0,0,1,1.671.421A3.115,3.115,0,0,1,13.948-2.7a3.332,3.332,0,0,1,.439,1.707A3.332,3.332,0,0,1,13.948.716a3.139,3.139,0,0,1-1.2,1.181A3.351,3.351,0,0,1,11.083,2.322Zm0-1.666A1.377,1.377,0,0,0,12.168.208a1.74,1.74,0,0,0,.4-1.2,1.75,1.75,0,0,0-.4-1.213,1.384,1.384,0,0,0-1.085-.444A1.38,1.38,0,0,0,9.994-2.2,1.763,1.763,0,0,0,9.6-.991a1.749,1.749,0,0,0,.394,1.2A1.38,1.38,0,0,0,11.083.656Zm7.735.229h2V2.258h-3.8V-4.2h1.794ZM25.144-4.2V2.258H23.349V-4.2Zm7.708,0v1.428H31.131V2.258H29.336V-2.767h-1.7V-4.2Zm4.293,0V2.258H35.351V-4.2ZM39.781-.982a3.55,3.55,0,0,1,.4-1.7A2.86,2.86,0,0,1,41.31-3.843a3.347,3.347,0,0,1,1.684-.417,3.194,3.194,0,0,1,2.032.645,2.927,2.927,0,0,1,1.062,1.753H44.157a1.293,1.293,0,0,0-.481-.558,1.308,1.308,0,0,0-.709-.192,1.228,1.228,0,0,0-.993.444A1.79,1.79,0,0,0,41.6-.982,1.8,1.8,0,0,0,41.974.212a1.228,1.228,0,0,0,.993.444,1.307,1.307,0,0,0,.709-.192,1.293,1.293,0,0,0,.481-.558h1.932a2.927,2.927,0,0,1-1.062,1.753,3.194,3.194,0,0,1-2.032.645,3.347,3.347,0,0,1-1.684-.417A2.86,2.86,0,0,1,40.179.725,3.57,3.57,0,0,1,39.781-.982ZM52.853,1.206H50.565l-.348,1.053H48.331L50.684-4.2h2.069L55.1,2.258H53.2ZM52.4-.167l-.7-2.087L51.022-.167ZM65.047-4.2V2.258H63.252V-1.3L62.035,2.258h-1.5L59.307-1.33V2.258H57.513V-4.2h2.17L61.3,0,62.886-4.2ZM69.7-2.758v1.053h2.06V-.341H69.7V.821h2.334V2.258H67.9V-4.2h4.129v1.437ZM80.728,2.258H78.933L76.544-1.348V2.258H74.75V-4.2h1.794L78.933-.543V-4.2h1.794ZM88.445-4.2v1.428H86.724V2.258H84.929V-2.767h-1.7V-4.2Zm4.293,1.437v1.053H94.8V-.341h-2.06V.821h2.334V2.258H90.944V-4.2h4.129v1.437Z" transform="translate(382.404 297.113)" fill="#f2f2f2"/>
        <rect id="Retângulo_143" data-name="Retângulo 143" width="502.438" height="480.02" transform="translate(0.52)" fill="none"/>
      </g>
    </g>
  </g>
</svg>
