<svg xmlns="http://www.w3.org/2000/svg" xmlns:xlink="http://www.w3.org/1999/xlink" width="363.027" height="237.442" viewBox="0 0 363.027 237.442">
  <defs>
    <clipPath id="clip-path">
      <rect id="Retângulo_172" data-name="Retângulo 172" width="363.027" height="237.442" fill="none"/>
    </clipPath>
  </defs>
  <g id="Grupo_1851" data-name="Grupo 1851" transform="translate(1345 306)">
    <g id="Grupo_478" data-name="Grupo 478" transform="translate(-1345 -306)">
      <g id="Grupo_477" data-name="Grupo 477" clip-path="url(#clip-path)">
        <path id="Caminho_551" data-name="Caminho 551" d="M540.182,96.075H404.774a5.428,5.428,0,0,1-5.428-5.428V5.428A5.428,5.428,0,0,1,404.774,0H540.182a5.428,5.428,0,0,1,5.428,5.428V90.647a5.428,5.428,0,0,1-5.428,5.428" transform="translate(-182.582)" fill="#6dafcc"/>
      </g>
    </g>
    <path id="Caminho_562" data-name="Caminho 562" d="M4.323.077a3.869,3.869,0,0,1-1.947-.5,3.664,3.664,0,0,1-1.392-1.4A4,4,0,0,1,.473-3.839,4,4,0,0,1,.985-5.858a3.664,3.664,0,0,1,1.392-1.4,3.869,3.869,0,0,1,1.947-.5,3.89,3.89,0,0,1,1.958.5A3.635,3.635,0,0,1,7.667-5.863a4.026,4.026,0,0,1,.506,2.024,4.026,4.026,0,0,1-.506,2.024A3.635,3.635,0,0,1,6.281-.424,3.89,3.89,0,0,1,4.323.077Zm0-.869A2.825,2.825,0,0,0,5.77-1.166,2.632,2.632,0,0,0,6.782-2.233,3.37,3.37,0,0,0,7.15-3.839a3.362,3.362,0,0,0-.369-1.612A2.652,2.652,0,0,0,5.775-6.512a2.817,2.817,0,0,0-1.452-.374,2.817,2.817,0,0,0-1.452.374A2.652,2.652,0,0,0,1.865-5.451,3.362,3.362,0,0,0,1.5-3.839a3.37,3.37,0,0,0,.368,1.606A2.632,2.632,0,0,0,2.877-1.166,2.825,2.825,0,0,0,4.323-.792ZM15.906.077a3.869,3.869,0,0,1-1.947-.5,3.664,3.664,0,0,1-1.392-1.4,4,4,0,0,1-.512-2.018,4,4,0,0,1,.512-2.019,3.664,3.664,0,0,1,1.392-1.4,3.869,3.869,0,0,1,1.947-.5,3.89,3.89,0,0,1,1.958.5A3.635,3.635,0,0,1,19.25-5.863a4.026,4.026,0,0,1,.506,2.024,4.026,4.026,0,0,1-.506,2.024A3.635,3.635,0,0,1,17.864-.424,3.89,3.89,0,0,1,15.906.077Zm0-.869a2.825,2.825,0,0,0,1.447-.374,2.632,2.632,0,0,0,1.012-1.067,3.37,3.37,0,0,0,.369-1.606,3.362,3.362,0,0,0-.369-1.612,2.652,2.652,0,0,0-1.006-1.061,2.817,2.817,0,0,0-1.452-.374,2.817,2.817,0,0,0-1.452.374,2.652,2.652,0,0,0-1.007,1.061,3.362,3.362,0,0,0-.368,1.612,3.37,3.37,0,0,0,.368,1.606A2.632,2.632,0,0,0,14.46-1.166,2.825,2.825,0,0,0,15.906-.792Zm9.009-3.157a1.62,1.62,0,0,1,.764.341,2,2,0,0,1,.55.682,1.917,1.917,0,0,1,.2.869,1.918,1.918,0,0,1-.3,1.051,2.018,2.018,0,0,1-.863.737A3.083,3.083,0,0,1,23.936,0h-2.86V-7.667h2.75a3.111,3.111,0,0,1,1.331.258,1.884,1.884,0,0,1,.825.7,1.829,1.829,0,0,1,.275.99,1.71,1.71,0,0,1-.368,1.128A2.062,2.062,0,0,1,24.915-3.949Zm-2.838-.407H23.76a1.624,1.624,0,0,0,1.089-.33,1.138,1.138,0,0,0,.385-.913,1.138,1.138,0,0,0-.385-.913,1.661,1.661,0,0,0-1.111-.33H22.077ZM23.848-.825a1.757,1.757,0,0,0,1.166-.352,1.21,1.21,0,0,0,.418-.979,1.243,1.243,0,0,0-.44-1.007,1.774,1.774,0,0,0-1.177-.368H22.077V-.825ZM31.68-7.667V-2A2.012,2.012,0,0,1,31.1-.49a2.116,2.116,0,0,1-1.54.567A2.107,2.107,0,0,1,28.006-.5a2.122,2.122,0,0,1-.583-1.578h1a1.469,1.469,0,0,0,.292.913,1.011,1.011,0,0,0,.841.352,1.018,1.018,0,0,0,.836-.336A1.3,1.3,0,0,0,30.668-2V-7.667Zm2.97.814V-4.29h2.794v.825H34.65v2.64h3.124V0H33.649V-7.678h4.125v.825Zm9.361-.814v.814h-2.09V0h-1V-6.853h-2.1v-.814ZM48.719.077a3.869,3.869,0,0,1-1.947-.5,3.664,3.664,0,0,1-1.391-1.4,4,4,0,0,1-.512-2.018,4,4,0,0,1,.512-2.019,3.664,3.664,0,0,1,1.391-1.4,3.869,3.869,0,0,1,1.947-.5,3.89,3.89,0,0,1,1.958.5,3.635,3.635,0,0,1,1.386,1.391,4.026,4.026,0,0,1,.506,2.024,4.026,4.026,0,0,1-.506,2.024A3.635,3.635,0,0,1,50.677-.424,3.89,3.89,0,0,1,48.719.077Zm0-.869a2.825,2.825,0,0,0,1.447-.374,2.632,2.632,0,0,0,1.012-1.067,3.37,3.37,0,0,0,.368-1.606,3.362,3.362,0,0,0-.368-1.612,2.652,2.652,0,0,0-1.007-1.061,2.817,2.817,0,0,0-1.452-.374,2.817,2.817,0,0,0-1.452.374,2.652,2.652,0,0,0-1.006,1.061,3.362,3.362,0,0,0-.369,1.612,3.37,3.37,0,0,0,.369,1.606,2.632,2.632,0,0,0,1.012,1.067A2.825,2.825,0,0,0,48.719-.792Z" transform="translate(-1087 -264.14)" fill="#fff"/>
    <path id="Caminho_563" data-name="Caminho 563" d="M3.234-7.667A4.734,4.734,0,0,1,5.407-7.2,3.286,3.286,0,0,1,6.815-5.863,4.1,4.1,0,0,1,7.3-3.817a4.07,4.07,0,0,1-.49,2.04A3.228,3.228,0,0,1,5.407-.457,4.829,4.829,0,0,1,3.234,0H.847V-7.667Zm0,6.842A3.056,3.056,0,0,0,5.5-1.612a2.994,2.994,0,0,0,.781-2.205A3.055,3.055,0,0,0,5.495-6.05a3.022,3.022,0,0,0-2.261-.8H1.848V-.825ZM9.625-6.853V-4.29h2.794v.825H9.625v2.64h3.124V0H8.624V-7.678h4.125v.825Zm12.3-.814v.814h-2.09V0h-1V-6.853h-2.1v-.814ZM27.192,0,25.366-3.135h-1.21V0h-1V-7.667H25.63a3.286,3.286,0,0,1,1.469.3,2.068,2.068,0,0,1,.9.8,2.239,2.239,0,0,1,.3,1.155,2.256,2.256,0,0,1-.456,1.4,2.231,2.231,0,0,1-1.37.8L28.391,0ZM24.156-3.938H25.63a1.672,1.672,0,0,0,1.221-.4,1.439,1.439,0,0,0,.407-1.072,1.372,1.372,0,0,0-.4-1.056,1.747,1.747,0,0,0-1.226-.374H24.156ZM34.375-1.705H31.031L30.415,0H29.359l2.772-7.623h1.155L36.047,0H34.991Zm-.286-.814L32.7-6.391,31.317-2.519ZM41.1-3.949a1.62,1.62,0,0,1,.764.341,2,2,0,0,1,.55.682,1.917,1.917,0,0,1,.2.869,1.918,1.918,0,0,1-.3,1.051,2.018,2.018,0,0,1-.864.737A3.083,3.083,0,0,1,40.117,0h-2.86V-7.667h2.75a3.111,3.111,0,0,1,1.331.258,1.884,1.884,0,0,1,.825.7,1.829,1.829,0,0,1,.275.99,1.71,1.71,0,0,1-.368,1.128A2.062,2.062,0,0,1,41.1-3.949Zm-2.838-.407h1.683a1.624,1.624,0,0,0,1.089-.33,1.138,1.138,0,0,0,.385-.913,1.138,1.138,0,0,0-.385-.913,1.661,1.661,0,0,0-1.111-.33H38.258ZM40.029-.825a1.757,1.757,0,0,0,1.166-.352,1.21,1.21,0,0,0,.418-.979,1.243,1.243,0,0,0-.44-1.007A1.774,1.774,0,0,0,40-3.531H38.258V-.825Zm8.5-.88H45.188L44.572,0H43.516l2.772-7.623h1.155L50.2,0H49.148Zm-.286-.814L46.86-6.391,45.474-2.519ZM52.415-.814H55.1V0H51.414V-7.667h1Zm9.658-6.853V0h-1V-3.476h-3.9V0h-1V-7.667h1V-4.3h3.9V-7.667ZM67.254.077a3.869,3.869,0,0,1-1.947-.5,3.664,3.664,0,0,1-1.391-1.4A4,4,0,0,1,63.4-3.839a4,4,0,0,1,.512-2.019,3.664,3.664,0,0,1,1.391-1.4,3.869,3.869,0,0,1,1.947-.5,3.89,3.89,0,0,1,1.958.5A3.635,3.635,0,0,1,70.6-5.863,4.026,4.026,0,0,1,71.1-3.839,4.026,4.026,0,0,1,70.6-1.815,3.635,3.635,0,0,1,69.212-.424,3.89,3.89,0,0,1,67.254.077Zm0-.869A2.825,2.825,0,0,0,68.7-1.166a2.632,2.632,0,0,0,1.012-1.067,3.37,3.37,0,0,0,.368-1.606,3.362,3.362,0,0,0-.368-1.612,2.652,2.652,0,0,0-1.007-1.061,2.817,2.817,0,0,0-1.452-.374,2.817,2.817,0,0,0-1.452.374A2.652,2.652,0,0,0,64.8-5.451a3.362,3.362,0,0,0-.368,1.612A3.37,3.37,0,0,0,64.8-2.233a2.632,2.632,0,0,0,1.012,1.067A2.825,2.825,0,0,0,67.254-.792Z" transform="translate(-1095 -249.81)" fill="#fff"/>
    <g id="Grupo_480" data-name="Grupo 480" transform="translate(-1345 -306)">
      <g id="Grupo_479" data-name="Grupo 479" clip-path="url(#clip-path)">
        <path id="Caminho_552" data-name="Caminho 552" d="M140.836,96.075H5.428A5.428,5.428,0,0,1,0,90.647V5.428A5.428,5.428,0,0,1,5.428,0H140.836a5.428,5.428,0,0,1,5.428,5.428V90.647a5.428,5.428,0,0,1-5.428,5.428" fill="#1b8992"/>
      </g>
    </g>
    <path id="Caminho_560" data-name="Caminho 560" d="M5.379-1.705H2.035L1.419,0H.363L3.135-7.623H4.29L7.051,0H6Zm-.286-.814L3.707-6.391,2.321-2.519ZM15.532-7.667v.814H12.2v2.585h2.706v.814H12.2V0h-1V-7.667Zm2.211,0V0h-1V-7.667ZM25.476,0h-1L20.449-6.105V0h-1V-7.678h1l4.026,6.094V-7.678h1Zm6.237-1.705H28.369L27.753,0H26.7l2.772-7.623h1.155L33.385,0H32.329Zm-.286-.814L30.041-6.391,28.655-2.519ZM35.6-.814H38.28V0H34.6V-7.667h1Zm4.752-6.853V0h-1V-7.667Zm4.092,0a4.734,4.734,0,0,1,2.173.468,3.286,3.286,0,0,1,1.408,1.336,4.1,4.1,0,0,1,.49,2.046,4.07,4.07,0,0,1-.49,2.04,3.228,3.228,0,0,1-1.408,1.32A4.829,4.829,0,0,1,44.44,0H42.053V-7.667Zm0,6.842a3.056,3.056,0,0,0,2.266-.786,2.994,2.994,0,0,0,.781-2.205A3.055,3.055,0,0,0,46.7-6.05a3.022,3.022,0,0,0-2.26-.8H43.054V-.825Zm9.922-.88H51.018L50.4,0H49.346l2.772-7.623h1.155L56.034,0H54.978Zm-.286-.814L52.69-6.391,51.3-2.519Zm5.555-5.148A4.734,4.734,0,0,1,61.8-7.2a3.286,3.286,0,0,1,1.408,1.336,4.1,4.1,0,0,1,.49,2.046,4.07,4.07,0,0,1-.49,2.04A3.228,3.228,0,0,1,61.8-.457,4.829,4.829,0,0,1,59.631,0H57.244V-7.667Zm0,6.842A3.056,3.056,0,0,0,61.9-1.612a2.994,2.994,0,0,0,.781-2.205,3.055,3.055,0,0,0-.787-2.233,3.022,3.022,0,0,0-2.26-.8H58.245V-.825Zm6.391-6.028V-4.29h2.794v.825H66.022v2.64h3.124V0H65.021V-7.678h4.125v.825Z" transform="translate(-1311.466 -264.14)" fill="#fff"/>
    <path id="Caminho_561" data-name="Caminho 561" d="M3.234-7.667A4.734,4.734,0,0,1,5.407-7.2,3.286,3.286,0,0,1,6.815-5.863,4.1,4.1,0,0,1,7.3-3.817a4.07,4.07,0,0,1-.49,2.04A3.228,3.228,0,0,1,5.407-.457,4.829,4.829,0,0,1,3.234,0H.847V-7.667Zm0,6.842A3.056,3.056,0,0,0,5.5-1.612a2.994,2.994,0,0,0,.781-2.205A3.055,3.055,0,0,0,5.495-6.05a3.022,3.022,0,0,0-2.261-.8H1.848V-.825Zm8.866.9a3.869,3.869,0,0,1-1.947-.5,3.664,3.664,0,0,1-1.391-1.4A4,4,0,0,1,8.25-3.839a4,4,0,0,1,.512-2.019,3.664,3.664,0,0,1,1.391-1.4,3.869,3.869,0,0,1,1.947-.5,3.89,3.89,0,0,1,1.958.5,3.635,3.635,0,0,1,1.386,1.391,4.026,4.026,0,0,1,.506,2.024,4.026,4.026,0,0,1-.506,2.024A3.635,3.635,0,0,1,14.058-.424,3.89,3.89,0,0,1,12.1.077Zm0-.869a2.825,2.825,0,0,0,1.446-.374,2.632,2.632,0,0,0,1.012-1.067,3.37,3.37,0,0,0,.368-1.606,3.362,3.362,0,0,0-.368-1.612,2.652,2.652,0,0,0-1.007-1.061A2.817,2.817,0,0,0,12.1-6.886a2.817,2.817,0,0,0-1.452.374A2.652,2.652,0,0,0,9.642-5.451a3.362,3.362,0,0,0-.369,1.612,3.37,3.37,0,0,0,.369,1.606,2.632,2.632,0,0,0,1.012,1.067A2.825,2.825,0,0,0,12.1-.792ZM24.926-7.667v.814h-2.09V0h-1V-6.853h-2.1v-.814ZM30.2,0,28.369-3.135h-1.21V0h-1V-7.667h2.475a3.286,3.286,0,0,1,1.469.3,2.068,2.068,0,0,1,.9.8,2.239,2.239,0,0,1,.3,1.155,2.256,2.256,0,0,1-.457,1.4,2.231,2.231,0,0,1-1.369.8L31.394,0ZM27.159-3.938h1.474a1.672,1.672,0,0,0,1.221-.4,1.439,1.439,0,0,0,.407-1.072,1.372,1.372,0,0,0-.4-1.056,1.747,1.747,0,0,0-1.226-.374H27.159ZM37.378-1.705H34.034L33.418,0H32.362l2.772-7.623h1.155L39.05,0H37.994Zm-.286-.814L35.706-6.391,34.32-2.519ZM44.1-3.949a1.62,1.62,0,0,1,.764.341,2,2,0,0,1,.55.682,1.917,1.917,0,0,1,.2.869,1.918,1.918,0,0,1-.3,1.051,2.018,2.018,0,0,1-.864.737A3.083,3.083,0,0,1,43.12,0H40.26V-7.667h2.75a3.111,3.111,0,0,1,1.331.258,1.884,1.884,0,0,1,.825.7,1.829,1.829,0,0,1,.275.99,1.71,1.71,0,0,1-.368,1.128A2.062,2.062,0,0,1,44.1-3.949Zm-2.838-.407h1.683a1.624,1.624,0,0,0,1.089-.33,1.138,1.138,0,0,0,.385-.913,1.138,1.138,0,0,0-.385-.913,1.661,1.661,0,0,0-1.111-.33H41.261ZM43.032-.825A1.757,1.757,0,0,0,44.2-1.177a1.21,1.21,0,0,0,.418-.979,1.243,1.243,0,0,0-.44-1.007A1.774,1.774,0,0,0,43-3.531H41.261V-.825Zm8.5-.88H48.191L47.575,0H46.519l2.772-7.623h1.155L53.207,0H52.151Zm-.286-.814L49.863-6.391,48.477-2.519ZM55.418-.814H58.1V0H54.417V-7.667h1Zm9.658-6.853V0h-1V-3.476H60.17V0h-1V-7.667h1V-4.3h3.905V-7.667ZM70.257.077a3.869,3.869,0,0,1-1.947-.5,3.664,3.664,0,0,1-1.392-1.4,4,4,0,0,1-.511-2.018,4,4,0,0,1,.511-2.019,3.664,3.664,0,0,1,1.392-1.4,3.869,3.869,0,0,1,1.947-.5,3.89,3.89,0,0,1,1.958.5A3.635,3.635,0,0,1,73.6-5.863a4.026,4.026,0,0,1,.506,2.024A4.026,4.026,0,0,1,73.6-1.815,3.635,3.635,0,0,1,72.215-.424,3.89,3.89,0,0,1,70.257.077Zm0-.869A2.825,2.825,0,0,0,71.7-1.166a2.632,2.632,0,0,0,1.012-1.067,3.37,3.37,0,0,0,.368-1.606,3.362,3.362,0,0,0-.368-1.612,2.652,2.652,0,0,0-1.007-1.061,2.817,2.817,0,0,0-1.452-.374,2.817,2.817,0,0,0-1.452.374A2.652,2.652,0,0,0,67.8-5.451a3.362,3.362,0,0,0-.368,1.612A3.37,3.37,0,0,0,67.8-2.233a2.632,2.632,0,0,0,1.012,1.067A2.825,2.825,0,0,0,70.257-.792Z" transform="translate(-1313.628 -249.81)" fill="#fff"/>
    <g id="Grupo_482" data-name="Grupo 482" transform="translate(-1345 -306)">
      <g id="Grupo_481" data-name="Grupo 481" clip-path="url(#clip-path)">
        <path id="Caminho_553" data-name="Caminho 553" d="M540.182,356.517H404.774a5.428,5.428,0,0,1-5.428-5.428V265.87a5.428,5.428,0,0,1,5.428-5.428H540.182a5.428,5.428,0,0,1,5.428,5.428v85.219a5.428,5.428,0,0,1-5.428,5.428" transform="translate(-182.582 -119.075)" fill="#108141"/>
      </g>
    </g>
    <path id="Caminho_568" data-name="Caminho 568" d="M4.323.077a3.869,3.869,0,0,1-1.947-.5,3.664,3.664,0,0,1-1.392-1.4A4,4,0,0,1,.473-3.839,4,4,0,0,1,.985-5.858a3.664,3.664,0,0,1,1.392-1.4,3.869,3.869,0,0,1,1.947-.5,3.89,3.89,0,0,1,1.958.5A3.635,3.635,0,0,1,7.667-5.863a4.026,4.026,0,0,1,.506,2.024,4.026,4.026,0,0,1-.506,2.024A3.635,3.635,0,0,1,6.281-.424,3.89,3.89,0,0,1,4.323.077Zm0-.869A2.825,2.825,0,0,0,5.77-1.166,2.632,2.632,0,0,0,6.782-2.233,3.37,3.37,0,0,0,7.15-3.839a3.362,3.362,0,0,0-.369-1.612A2.652,2.652,0,0,0,5.775-6.512a2.817,2.817,0,0,0-1.452-.374,2.817,2.817,0,0,0-1.452.374A2.652,2.652,0,0,0,1.865-5.451,3.362,3.362,0,0,0,1.5-3.839a3.37,3.37,0,0,0,.368,1.606A2.632,2.632,0,0,0,2.877-1.166,2.825,2.825,0,0,0,4.323-.792Zm7.6.869a3.279,3.279,0,0,1-1.358-.269,2.264,2.264,0,0,1-.941-.748,1.916,1.916,0,0,1-.352-1.105H10.34a1.405,1.405,0,0,0,.445.907,1.6,1.6,0,0,0,1.139.369,1.664,1.664,0,0,0,1.128-.358,1.16,1.16,0,0,0,.413-.918,1.043,1.043,0,0,0-.242-.715,1.546,1.546,0,0,0-.6-.418,9.453,9.453,0,0,0-.979-.308,8.622,8.622,0,0,1-1.216-.4A1.958,1.958,0,0,1,9.641-4.5a1.826,1.826,0,0,1-.324-1.138,1.973,1.973,0,0,1,.319-1.111,2.078,2.078,0,0,1,.9-.748,3.156,3.156,0,0,1,1.325-.264,2.776,2.776,0,0,1,1.766.539A1.991,1.991,0,0,1,14.4-5.8H13.3a1.187,1.187,0,0,0-.462-.776,1.641,1.641,0,0,0-1.078-.335,1.562,1.562,0,0,0-1.023.325,1.108,1.108,0,0,0-.4.907.983.983,0,0,0,.236.682,1.525,1.525,0,0,0,.583.4q.346.138.973.313a9.143,9.143,0,0,1,1.221.413,2.037,2.037,0,0,1,.792.627,1.823,1.823,0,0,1,.33,1.15,2.019,2.019,0,0,1-.3,1.056,2.183,2.183,0,0,1-.88.8A2.9,2.9,0,0,1,11.924.077Zm7.964-7.744V0h-1V-7.667ZM27.621,0h-1L22.594-6.105V0h-1V-7.678h1L26.62-1.584V-7.678h1Zm4.136.077A3.279,3.279,0,0,1,30.4-.192a2.264,2.264,0,0,1-.941-.748,1.916,1.916,0,0,1-.352-1.105h1.067a1.405,1.405,0,0,0,.445.907,1.6,1.6,0,0,0,1.139.369,1.664,1.664,0,0,0,1.128-.358,1.16,1.16,0,0,0,.412-.918,1.043,1.043,0,0,0-.242-.715,1.546,1.546,0,0,0-.605-.418,9.453,9.453,0,0,0-.979-.308,8.622,8.622,0,0,1-1.215-.4,1.958,1.958,0,0,1-.781-.622,1.826,1.826,0,0,1-.325-1.138,1.973,1.973,0,0,1,.319-1.111,2.078,2.078,0,0,1,.9-.748,3.156,3.156,0,0,1,1.326-.264,2.776,2.776,0,0,1,1.765.539,1.991,1.991,0,0,1,.776,1.43h-1.1a1.187,1.187,0,0,0-.462-.776,1.641,1.641,0,0,0-1.078-.335,1.562,1.562,0,0,0-1.023.325,1.108,1.108,0,0,0-.4.907.983.983,0,0,0,.236.682,1.525,1.525,0,0,0,.583.4q.347.138.973.313a9.143,9.143,0,0,1,1.221.413,2.037,2.037,0,0,1,.792.627,1.823,1.823,0,0,1,.33,1.15,2.018,2.018,0,0,1-.3,1.056,2.183,2.183,0,0,1-.88.8A2.9,2.9,0,0,1,31.757.077ZM40.5-7.667v.814h-2.09V0h-1V-6.853h-2.1v-.814ZM45.771,0,43.945-3.135h-1.21V0h-1V-7.667h2.475a3.286,3.286,0,0,1,1.469.3,2.068,2.068,0,0,1,.9.8,2.239,2.239,0,0,1,.3,1.155,2.256,2.256,0,0,1-.457,1.4,2.231,2.231,0,0,1-1.369.8L46.97,0ZM42.735-3.938h1.474a1.672,1.672,0,0,0,1.221-.4,1.439,1.439,0,0,0,.407-1.072,1.372,1.372,0,0,0-.4-1.056,1.747,1.747,0,0,0-1.227-.374H42.735ZM49.4-7.667v4.851A2.053,2.053,0,0,0,49.9-1.3a1.893,1.893,0,0,0,1.392.5,1.878,1.878,0,0,0,1.38-.5,2.053,2.053,0,0,0,.5-1.518V-7.667h1v4.84a3.13,3.13,0,0,1-.385,1.611,2.417,2.417,0,0,1-1.04.974,3.308,3.308,0,0,1-1.468.319,3.308,3.308,0,0,1-1.469-.319,2.384,2.384,0,0,1-1.034-.974A3.167,3.167,0,0,1,48.4-2.827v-4.84Zm14.223.055V0h-1V-5.676L60.093,0h-.7L56.848-5.687V0h-1V-7.612h1.078L59.741-1.32l2.816-6.292Zm2.695.759V-4.29h2.794v.825H66.319v2.64h3.124V0H65.318V-7.678h4.125v.825ZM76.989,0h-1L71.962-6.105V0h-1V-7.678h1l4.026,6.094V-7.678h1Zm6.424-7.667v.814h-2.09V0h-1V-6.853h-2.1v-.814ZM88.121.077a3.869,3.869,0,0,1-1.947-.5,3.664,3.664,0,0,1-1.392-1.4,4,4,0,0,1-.511-2.018,4,4,0,0,1,.511-2.019,3.664,3.664,0,0,1,1.392-1.4,3.869,3.869,0,0,1,1.947-.5,3.89,3.89,0,0,1,1.958.5,3.635,3.635,0,0,1,1.386,1.391,4.026,4.026,0,0,1,.506,2.024,4.026,4.026,0,0,1-.506,2.024A3.635,3.635,0,0,1,90.079-.424,3.89,3.89,0,0,1,88.121.077Zm0-.869a2.825,2.825,0,0,0,1.447-.374,2.632,2.632,0,0,0,1.012-1.067,3.37,3.37,0,0,0,.368-1.606,3.362,3.362,0,0,0-.368-1.612,2.652,2.652,0,0,0-1.007-1.061,2.817,2.817,0,0,0-1.452-.374,2.817,2.817,0,0,0-1.452.374,2.652,2.652,0,0,0-1.007,1.061,3.362,3.362,0,0,0-.368,1.612,3.37,3.37,0,0,0,.368,1.606,2.632,2.632,0,0,0,1.012,1.067A2.825,2.825,0,0,0,88.121-.792Zm7.6.869a3.279,3.279,0,0,1-1.358-.269,2.264,2.264,0,0,1-.941-.748,1.916,1.916,0,0,1-.352-1.105h1.067a1.4,1.4,0,0,0,.446.907,1.6,1.6,0,0,0,1.138.369,1.664,1.664,0,0,0,1.128-.358,1.16,1.16,0,0,0,.412-.918,1.043,1.043,0,0,0-.242-.715,1.546,1.546,0,0,0-.605-.418,9.453,9.453,0,0,0-.979-.308,8.622,8.622,0,0,1-1.215-.4,1.958,1.958,0,0,1-.781-.622,1.826,1.826,0,0,1-.325-1.138,1.973,1.973,0,0,1,.319-1.111,2.078,2.078,0,0,1,.9-.748,3.156,3.156,0,0,1,1.326-.264,2.776,2.776,0,0,1,1.766.539A1.991,1.991,0,0,1,98.2-5.8H97.1a1.187,1.187,0,0,0-.462-.776,1.641,1.641,0,0,0-1.078-.335,1.562,1.562,0,0,0-1.023.325,1.108,1.108,0,0,0-.4.907.983.983,0,0,0,.236.682,1.525,1.525,0,0,0,.583.4q.346.138.973.313a9.143,9.143,0,0,1,1.221.413,2.037,2.037,0,0,1,.792.627,1.823,1.823,0,0,1,.33,1.15,2.018,2.018,0,0,1-.3,1.056,2.183,2.183,0,0,1-.88.8A2.9,2.9,0,0,1,95.722.077Z" transform="translate(-1103.088 -116.345)" fill="#fff"/>
    <path id="Caminho_569" data-name="Caminho 569" d="M3.234-7.667A4.734,4.734,0,0,1,5.407-7.2,3.286,3.286,0,0,1,6.815-5.863,4.1,4.1,0,0,1,7.3-3.817a4.07,4.07,0,0,1-.49,2.04A3.228,3.228,0,0,1,5.407-.457,4.829,4.829,0,0,1,3.234,0H.847V-7.667Zm0,6.842A3.056,3.056,0,0,0,5.5-1.612a2.994,2.994,0,0,0,.781-2.205A3.055,3.055,0,0,0,5.495-6.05a3.022,3.022,0,0,0-2.261-.8H1.848V-.825ZM9.625-6.853V-4.29h2.794v.825H9.625v2.64h3.124V0H8.624V-7.678h4.125v.825Zm12.3-.814v.814h-2.09V0h-1V-6.853h-2.1v-.814ZM27.192,0,25.366-3.135h-1.21V0h-1V-7.667H25.63a3.286,3.286,0,0,1,1.469.3,2.068,2.068,0,0,1,.9.8,2.239,2.239,0,0,1,.3,1.155,2.256,2.256,0,0,1-.456,1.4,2.231,2.231,0,0,1-1.37.8L28.391,0ZM24.156-3.938H25.63a1.672,1.672,0,0,0,1.221-.4,1.439,1.439,0,0,0,.407-1.072,1.372,1.372,0,0,0-.4-1.056,1.747,1.747,0,0,0-1.226-.374H24.156ZM34.375-1.705H31.031L30.415,0H29.359l2.772-7.623h1.155L36.047,0H34.991Zm-.286-.814L32.7-6.391,31.317-2.519ZM41.1-3.949a1.62,1.62,0,0,1,.764.341,2,2,0,0,1,.55.682,1.917,1.917,0,0,1,.2.869,1.918,1.918,0,0,1-.3,1.051,2.018,2.018,0,0,1-.864.737A3.083,3.083,0,0,1,40.117,0h-2.86V-7.667h2.75a3.111,3.111,0,0,1,1.331.258,1.884,1.884,0,0,1,.825.7,1.829,1.829,0,0,1,.275.99,1.71,1.71,0,0,1-.368,1.128A2.062,2.062,0,0,1,41.1-3.949Zm-2.838-.407h1.683a1.624,1.624,0,0,0,1.089-.33,1.138,1.138,0,0,0,.385-.913,1.138,1.138,0,0,0-.385-.913,1.661,1.661,0,0,0-1.111-.33H38.258ZM40.029-.825a1.757,1.757,0,0,0,1.166-.352,1.21,1.21,0,0,0,.418-.979,1.243,1.243,0,0,0-.44-1.007A1.774,1.774,0,0,0,40-3.531H38.258V-.825Zm8.5-.88H45.188L44.572,0H43.516l2.772-7.623h1.155L50.2,0H49.148Zm-.286-.814L46.86-6.391,45.474-2.519ZM52.415-.814H55.1V0H51.414V-7.667h1Zm9.658-6.853V0h-1V-3.476h-3.9V0h-1V-7.667h1V-4.3h3.9V-7.667ZM67.254.077a3.869,3.869,0,0,1-1.947-.5,3.664,3.664,0,0,1-1.391-1.4A4,4,0,0,1,63.4-3.839a4,4,0,0,1,.512-2.019,3.664,3.664,0,0,1,1.391-1.4,3.869,3.869,0,0,1,1.947-.5,3.89,3.89,0,0,1,1.958.5A3.635,3.635,0,0,1,70.6-5.863,4.026,4.026,0,0,1,71.1-3.839,4.026,4.026,0,0,1,70.6-1.815,3.635,3.635,0,0,1,69.212-.424,3.89,3.89,0,0,1,67.254.077Zm0-.869A2.825,2.825,0,0,0,68.7-1.166a2.632,2.632,0,0,0,1.012-1.067,3.37,3.37,0,0,0,.368-1.606,3.362,3.362,0,0,0-.368-1.612,2.652,2.652,0,0,0-1.007-1.061,2.817,2.817,0,0,0-1.452-.374,2.817,2.817,0,0,0-1.452.374A2.652,2.652,0,0,0,64.8-5.451a3.362,3.362,0,0,0-.368,1.612A3.37,3.37,0,0,0,64.8-2.233a2.632,2.632,0,0,0,1.012,1.067A2.825,2.825,0,0,0,67.254-.792Z" transform="translate(-1086.359 -102.015)" fill="#fff"/>
    <g id="Grupo_484" data-name="Grupo 484" transform="translate(-1345 -306)">
      <g id="Grupo_483" data-name="Grupo 483" clip-path="url(#clip-path)">
        <path id="Caminho_554" data-name="Caminho 554" d="M140.836,356.517H5.428A5.428,5.428,0,0,1,0,351.089V265.87a5.428,5.428,0,0,1,5.428-5.428H140.836a5.428,5.428,0,0,1,5.428,5.428v85.219a5.428,5.428,0,0,1-5.428,5.428" transform="translate(0 -119.075)" fill="#f4bb2a"/>
      </g>
    </g>
    <path id="Caminho_566" data-name="Caminho 566" d="M5.379-1.705H2.035L1.419,0H.363L3.135-7.623H4.29L7.051,0H6Zm-.286-.814L3.707-6.391,2.321-2.519ZM15.532-7.667v.814H12.2v2.585h2.706v.814H12.2V0h-1V-7.667ZM20.218.077a3.869,3.869,0,0,1-1.947-.5,3.664,3.664,0,0,1-1.391-1.4,4,4,0,0,1-.512-2.018,4,4,0,0,1,.512-2.019,3.664,3.664,0,0,1,1.391-1.4,3.869,3.869,0,0,1,1.947-.5,3.89,3.89,0,0,1,1.958.5,3.635,3.635,0,0,1,1.386,1.391,4.026,4.026,0,0,1,.506,2.024,4.026,4.026,0,0,1-.506,2.024A3.635,3.635,0,0,1,22.176-.424,3.89,3.89,0,0,1,20.218.077Zm0-.869a2.825,2.825,0,0,0,1.447-.374,2.632,2.632,0,0,0,1.012-1.067,3.37,3.37,0,0,0,.369-1.606,3.362,3.362,0,0,0-.369-1.612A2.652,2.652,0,0,0,21.67-6.512a2.817,2.817,0,0,0-1.452-.374,2.817,2.817,0,0,0-1.452.374A2.652,2.652,0,0,0,17.76-5.451a3.362,3.362,0,0,0-.368,1.612,3.37,3.37,0,0,0,.368,1.606,2.632,2.632,0,0,0,1.012,1.067A2.825,2.825,0,0,0,20.218-.792ZM29.425,0,27.6-3.135h-1.21V0h-1V-7.667h2.475a3.286,3.286,0,0,1,1.469.3,2.068,2.068,0,0,1,.9.8,2.239,2.239,0,0,1,.3,1.155,2.256,2.256,0,0,1-.457,1.4,2.231,2.231,0,0,1-1.369.8L30.624,0ZM26.389-3.938h1.474a1.672,1.672,0,0,0,1.221-.4,1.439,1.439,0,0,0,.407-1.072,1.372,1.372,0,0,0-.4-1.056,1.747,1.747,0,0,0-1.226-.374H26.389ZM35.53-.8a2.688,2.688,0,0,0,1.436-.368,2.373,2.373,0,0,0,.918-1.061h1.2A3.482,3.482,0,0,1,37.856-.627a3.781,3.781,0,0,1-1.941.682V.638a1.647,1.647,0,0,1,1.034.275.954.954,0,0,1,.385.814,1.014,1.014,0,0,1-.374.825,1.473,1.473,0,0,1-.968.308H34.727V2.211h1.067a1.008,1.008,0,0,0,.534-.11.411.411,0,0,0,.171-.374.4.4,0,0,0-.171-.363,1.008,1.008,0,0,0-.534-.11h-.55V.055a3.8,3.8,0,0,1-1.809-.578A3.613,3.613,0,0,1,32.164-1.9,4.05,4.05,0,0,1,31.7-3.839a4.034,4.034,0,0,1,.506-2.019,3.676,3.676,0,0,1,1.381-1.4,3.806,3.806,0,0,1,1.941-.506,3.94,3.94,0,0,1,2.189.605,3.467,3.467,0,0,1,1.364,1.716h-1.2a2.407,2.407,0,0,0-.918-1.067,2.658,2.658,0,0,0-1.436-.374,2.8,2.8,0,0,0-1.441.374,2.615,2.615,0,0,0-1,1.061,3.4,3.4,0,0,0-.363,1.612,3.379,3.379,0,0,0,.363,1.6,2.615,2.615,0,0,0,1,1.062A2.8,2.8,0,0,0,35.53-.8Zm9.57-.9H41.756L41.14,0H40.084l2.772-7.623h1.155L46.772,0H45.716Zm-.286-.814L43.428-6.391,42.042-2.519Z" transform="translate(-1299.525 -117.345)" fill="#fff"/>
    <path id="Caminho_567" data-name="Caminho 567" d="M3.234-7.667A4.734,4.734,0,0,1,5.407-7.2,3.286,3.286,0,0,1,6.815-5.863,4.1,4.1,0,0,1,7.3-3.817a4.07,4.07,0,0,1-.49,2.04A3.228,3.228,0,0,1,5.407-.457,4.829,4.829,0,0,1,3.234,0H.847V-7.667Zm0,6.842A3.056,3.056,0,0,0,5.5-1.612a2.994,2.994,0,0,0,.781-2.205A3.055,3.055,0,0,0,5.495-6.05a3.022,3.022,0,0,0-2.261-.8H1.848V-.825ZM9.625-6.853V-4.29h2.794v.825H9.625v2.64h3.124V0H8.624V-7.678h4.125v.825Zm12.3-.814v.814h-2.09V0h-1V-6.853h-2.1v-.814ZM27.192,0,25.366-3.135h-1.21V0h-1V-7.667H25.63a3.286,3.286,0,0,1,1.469.3,2.068,2.068,0,0,1,.9.8,2.239,2.239,0,0,1,.3,1.155,2.256,2.256,0,0,1-.456,1.4,2.231,2.231,0,0,1-1.37.8L28.391,0ZM24.156-3.938H25.63a1.672,1.672,0,0,0,1.221-.4,1.439,1.439,0,0,0,.407-1.072,1.372,1.372,0,0,0-.4-1.056,1.747,1.747,0,0,0-1.226-.374H24.156ZM34.375-1.705H31.031L30.415,0H29.359l2.772-7.623h1.155L36.047,0H34.991Zm-.286-.814L32.7-6.391,31.317-2.519ZM41.1-3.949a1.62,1.62,0,0,1,.764.341,2,2,0,0,1,.55.682,1.917,1.917,0,0,1,.2.869,1.918,1.918,0,0,1-.3,1.051,2.018,2.018,0,0,1-.864.737A3.083,3.083,0,0,1,40.117,0h-2.86V-7.667h2.75a3.111,3.111,0,0,1,1.331.258,1.884,1.884,0,0,1,.825.7,1.829,1.829,0,0,1,.275.99,1.71,1.71,0,0,1-.368,1.128A2.062,2.062,0,0,1,41.1-3.949Zm-2.838-.407h1.683a1.624,1.624,0,0,0,1.089-.33,1.138,1.138,0,0,0,.385-.913,1.138,1.138,0,0,0-.385-.913,1.661,1.661,0,0,0-1.111-.33H38.258ZM40.029-.825a1.757,1.757,0,0,0,1.166-.352,1.21,1.21,0,0,0,.418-.979,1.243,1.243,0,0,0-.44-1.007A1.774,1.774,0,0,0,40-3.531H38.258V-.825Zm8.5-.88H45.188L44.572,0H43.516l2.772-7.623h1.155L50.2,0H49.148Zm-.286-.814L46.86-6.391,45.474-2.519ZM52.415-.814H55.1V0H51.414V-7.667h1Zm9.658-6.853V0h-1V-3.476h-3.9V0h-1V-7.667h1V-4.3h3.9V-7.667ZM67.254.077a3.869,3.869,0,0,1-1.947-.5,3.664,3.664,0,0,1-1.391-1.4A4,4,0,0,1,63.4-3.839a4,4,0,0,1,.512-2.019,3.664,3.664,0,0,1,1.391-1.4,3.869,3.869,0,0,1,1.947-.5,3.89,3.89,0,0,1,1.958.5A3.635,3.635,0,0,1,70.6-5.863,4.026,4.026,0,0,1,71.1-3.839,4.026,4.026,0,0,1,70.6-1.815,3.635,3.635,0,0,1,69.212-.424,3.89,3.89,0,0,1,67.254.077Zm0-.869A2.825,2.825,0,0,0,68.7-1.166a2.632,2.632,0,0,0,1.012-1.067,3.37,3.37,0,0,0,.368-1.606,3.362,3.362,0,0,0-.368-1.612,2.652,2.652,0,0,0-1.007-1.061,2.817,2.817,0,0,0-1.452-.374,2.817,2.817,0,0,0-1.452.374A2.652,2.652,0,0,0,64.8-5.451a3.362,3.362,0,0,0-.368,1.612A3.37,3.37,0,0,0,64.8-2.233a2.632,2.632,0,0,0,1.012,1.067A2.825,2.825,0,0,0,67.254-.792Z" transform="translate(-1312.111 -103.015)" fill="#fff"/>
    <g id="Grupo_486" data-name="Grupo 486" transform="translate(-1345 -306)">
      <g id="Grupo_485" data-name="Grupo 485" clip-path="url(#clip-path)">
        <path id="Caminho_555" data-name="Caminho 555" d="M307.7,125.1H147.732a5.429,5.429,0,0,0-4.914,3.123l-22.393,47.724a5.428,5.428,0,0,0,0,4.612l22.393,47.724a5.427,5.427,0,0,0,4.914,3.122H307.7a5.427,5.427,0,0,0,4.914-3.122l22.393-47.724a5.429,5.429,0,0,0,0-4.612l-22.393-47.724A5.429,5.429,0,0,0,307.7,125.1" transform="translate(-54.824 -57.194)" fill="#fff"/>
        <path id="Caminho_556" data-name="Caminho 556" d="M301.751,122.1h-156.7a5.428,5.428,0,0,0-4.914,3.123l-21.9,46.68a5.427,5.427,0,0,0,0,4.612l21.9,46.68a5.428,5.428,0,0,0,4.914,3.122h156.7a5.428,5.428,0,0,0,4.914-3.122l21.9-46.68a5.427,5.427,0,0,0,0-4.612l-21.9-46.68a5.429,5.429,0,0,0-4.914-3.123" transform="translate(-53.824 -55.823)" fill="#3e6d93"/>
      </g>
    </g>
    <path id="Caminho_564" data-name="Caminho 564" d="M5.148,0,3.3-3.264H2.508V0H.828V-8.376H3.972a3.671,3.671,0,0,1,1.656.342,2.389,2.389,0,0,1,1.026.924A2.522,2.522,0,0,1,7-5.808a2.494,2.494,0,0,1-.48,1.494A2.466,2.466,0,0,1,5.088-3.4l2,3.4ZM2.508-4.524h1.4a1.4,1.4,0,0,0,1.02-.33,1.228,1.228,0,0,0,.336-.918,1.172,1.172,0,0,0-.336-.894,1.437,1.437,0,0,0-1.02-.318h-1.4Zm8.052-2.5v2.1h2.82v1.332H10.56v2.22h3.18V0H8.88V-8.388h4.86V-7.02Zm7.956,7.1a3.978,3.978,0,0,1-1.578-.3,2.591,2.591,0,0,1-1.11-.864,2.275,2.275,0,0,1-.42-1.332h1.8a1.164,1.164,0,0,0,.366.816,1.3,1.3,0,0,0,.906.3,1.394,1.394,0,0,0,.924-.282.917.917,0,0,0,.336-.738.853.853,0,0,0-.228-.612,1.6,1.6,0,0,0-.57-.378A9.433,9.433,0,0,0,18-3.612a10.089,10.089,0,0,1-1.326-.474,2.323,2.323,0,0,1-.876-.708,2.018,2.018,0,0,1-.366-1.266,2.264,2.264,0,0,1,.372-1.3A2.366,2.366,0,0,1,16.848-8.2,3.8,3.8,0,0,1,18.384-8.5a3.332,3.332,0,0,1,2.106.63,2.336,2.336,0,0,1,.894,1.758H19.536a.96.96,0,0,0-.366-.714,1.379,1.379,0,0,0-.906-.282,1.167,1.167,0,0,0-.786.252.911.911,0,0,0-.294.732.757.757,0,0,0,.222.558,1.693,1.693,0,0,0,.552.36q.33.138.93.318a9.77,9.77,0,0,1,1.332.48,2.392,2.392,0,0,1,.888.72,2,2,0,0,1,.372,1.26,2.37,2.37,0,0,1-.348,1.248,2.457,2.457,0,0,1-1.02.918A3.479,3.479,0,0,1,18.516.084Zm6.432-8.46v5.184a1.777,1.777,0,0,0,.444,1.3,1.674,1.674,0,0,0,1.248.45,1.691,1.691,0,0,0,1.26-.45,1.777,1.777,0,0,0,.444-1.3V-8.376h1.692V-3.2A3.339,3.339,0,0,1,29.574-1.4a2.93,2.93,0,0,1-1.236,1.11,3.924,3.924,0,0,1-1.722.372,3.819,3.819,0,0,1-1.7-.372A2.832,2.832,0,0,1,23.712-1.4,3.444,3.444,0,0,1,23.268-3.2V-8.376ZM33.7-1.332h2.76V0h-4.44V-8.376H33.7Zm9.888-7.044V-7.02H41.352V0h-1.68V-7.02H37.44V-8.376ZM50.3-1.6H46.968L46.416,0H44.652l3.012-8.388H49.62L52.632,0H50.856ZM49.848-2.94l-1.212-3.5-1.212,3.5Zm7.2-5.436a5,5,0,0,1,2.322.516,3.686,3.686,0,0,1,1.548,1.47,4.379,4.379,0,0,1,.546,2.214,4.313,4.313,0,0,1-.546,2.2A3.708,3.708,0,0,1,59.37-.516,5,5,0,0,1,57.048,0H54.12V-8.376Zm-.06,6.948a2.759,2.759,0,0,0,2.04-.72,2.742,2.742,0,0,0,.72-2.028,2.805,2.805,0,0,0-.72-2.046,2.72,2.72,0,0,0-2.04-.738H55.8v5.532ZM66.972.084a4.34,4.34,0,0,1-2.16-.552A4.121,4.121,0,0,1,63.252-2a4.28,4.28,0,0,1-.576-2.214,4.257,4.257,0,0,1,.576-2.2,4.121,4.121,0,0,1,1.56-1.53,4.34,4.34,0,0,1,2.16-.552,4.33,4.33,0,0,1,2.166.552,4.09,4.09,0,0,1,1.548,1.53,4.292,4.292,0,0,1,.57,2.2A4.315,4.315,0,0,1,70.686-2a4.077,4.077,0,0,1-1.554,1.53A4.34,4.34,0,0,1,66.972.084Zm0-1.5A2.559,2.559,0,0,0,68.3-1.758a2.344,2.344,0,0,0,.9-.978,3.209,3.209,0,0,0,.324-1.476,3.172,3.172,0,0,0-.324-1.47,2.313,2.313,0,0,0-.9-.966,2.6,2.6,0,0,0-1.332-.336,2.628,2.628,0,0,0-1.338.336,2.3,2.3,0,0,0-.906.966,3.172,3.172,0,0,0-.324,1.47,3.209,3.209,0,0,0,.324,1.476,2.332,2.332,0,0,0,.906.978A2.591,2.591,0,0,0,66.972-1.416Zm13.6-9.948L77.328,2.172H75.684l3.24-13.536Zm11.016,5.58a2.608,2.608,0,0,1-.318,1.26,2.336,2.336,0,0,1-1,.948,3.623,3.623,0,0,1-1.71.36h-1.4V0h-1.68V-8.376H88.56a3.727,3.727,0,0,1,1.656.336,2.341,2.341,0,0,1,1.026.924A2.6,2.6,0,0,1,91.584-5.784Zm-3.1,1.212A1.456,1.456,0,0,0,89.52-4.89a1.172,1.172,0,0,0,.336-.894q0-1.224-1.368-1.224H87.156v2.436ZM97.452,0,95.6-3.264h-.792V0h-1.68V-8.376h3.144a3.671,3.671,0,0,1,1.656.342,2.389,2.389,0,0,1,1.026.924,2.522,2.522,0,0,1,.342,1.3,2.494,2.494,0,0,1-.48,1.494,2.466,2.466,0,0,1-1.428.918l2,3.4Zm-2.64-4.524h1.4a1.4,1.4,0,0,0,1.02-.33,1.228,1.228,0,0,0,.336-.918,1.172,1.172,0,0,0-.336-.894,1.437,1.437,0,0,0-1.02-.318h-1.4ZM105.06.084a4.34,4.34,0,0,1-2.16-.552A4.121,4.121,0,0,1,101.34-2a4.28,4.28,0,0,1-.576-2.214,4.257,4.257,0,0,1,.576-2.2,4.121,4.121,0,0,1,1.56-1.53,4.34,4.34,0,0,1,2.16-.552,4.33,4.33,0,0,1,2.166.552,4.09,4.09,0,0,1,1.548,1.53,4.292,4.292,0,0,1,.57,2.2A4.315,4.315,0,0,1,108.774-2a4.077,4.077,0,0,1-1.554,1.53A4.34,4.34,0,0,1,105.06.084Zm0-1.5a2.559,2.559,0,0,0,1.332-.342,2.344,2.344,0,0,0,.9-.978,3.209,3.209,0,0,0,.324-1.476,3.172,3.172,0,0,0-.324-1.47,2.313,2.313,0,0,0-.9-.966,2.6,2.6,0,0,0-1.332-.336,2.628,2.628,0,0,0-1.338.336,2.3,2.3,0,0,0-.906.966,3.172,3.172,0,0,0-.324,1.47,3.209,3.209,0,0,0,.324,1.476,2.332,2.332,0,0,0,.906.978A2.591,2.591,0,0,0,105.06-1.416Zm8.808-6.96a5,5,0,0,1,2.322.516,3.686,3.686,0,0,1,1.548,1.47,4.379,4.379,0,0,1,.546,2.214,4.313,4.313,0,0,1-.546,2.2A3.708,3.708,0,0,1,116.19-.516,5,5,0,0,1,113.868,0H110.94V-8.376Zm-.06,6.948a2.759,2.759,0,0,0,2.04-.72,2.742,2.742,0,0,0,.72-2.028,2.805,2.805,0,0,0-.72-2.046,2.72,2.72,0,0,0-2.04-.738H112.62v5.532Zm7.752-6.948v5.184A1.777,1.777,0,0,0,122-1.89a1.674,1.674,0,0,0,1.248.45,1.691,1.691,0,0,0,1.26-.45,1.777,1.777,0,0,0,.444-1.3V-8.376h1.692V-3.2a3.339,3.339,0,0,1-.462,1.806,2.93,2.93,0,0,1-1.236,1.11,3.924,3.924,0,0,1-1.722.372,3.819,3.819,0,0,1-1.7-.372,2.832,2.832,0,0,1-1.206-1.11A3.444,3.444,0,0,1,119.88-3.2V-8.376Zm12.768,0V-7.02H132.1V0h-1.68V-7.02h-2.232V-8.376ZM139.8.084a4.34,4.34,0,0,1-2.16-.552A4.121,4.121,0,0,1,136.08-2a4.28,4.28,0,0,1-.576-2.214,4.257,4.257,0,0,1,.576-2.2,4.121,4.121,0,0,1,1.56-1.53A4.34,4.34,0,0,1,139.8-8.5a4.33,4.33,0,0,1,2.166.552,4.09,4.09,0,0,1,1.548,1.53,4.292,4.292,0,0,1,.57,2.2A4.315,4.315,0,0,1,143.514-2a4.077,4.077,0,0,1-1.554,1.53A4.34,4.34,0,0,1,139.8.084Zm0-1.5a2.559,2.559,0,0,0,1.332-.342,2.344,2.344,0,0,0,.9-.978,3.209,3.209,0,0,0,.324-1.476,3.172,3.172,0,0,0-.324-1.47,2.313,2.313,0,0,0-.9-.966,2.6,2.6,0,0,0-1.332-.336,2.628,2.628,0,0,0-1.338.336,2.3,2.3,0,0,0-.906.966,3.172,3.172,0,0,0-.324,1.47,3.209,3.209,0,0,0,.324,1.476,2.332,2.332,0,0,0,.906.978A2.591,2.591,0,0,0,139.8-1.416Z" transform="translate(-1247.164 -192.952)" fill="#fff"/>
    <path id="Caminho_565" data-name="Caminho 565" d="M6-8.376V-7.02H2.508v2.148H5.184V-3.54H2.508V0H.828V-8.376Zm3.228,0V0H7.548V-8.376ZM18.408,0h-1.68l-3.8-5.748V0h-1.68V-8.388h1.68l3.8,5.76v-5.76h1.68ZM25.56-1.6H22.224L21.672,0H19.908L22.92-8.388h1.956L27.888,0H26.112ZM25.1-2.94l-1.212-3.5L22.68-2.94Zm5.952,1.608h2.76V0h-4.44V-8.376h1.68ZM41.388-8.376a5,5,0,0,1,2.322.516,3.686,3.686,0,0,1,1.548,1.47A4.379,4.379,0,0,1,45.8-4.176a4.313,4.313,0,0,1-.546,2.2A3.708,3.708,0,0,1,43.71-.516,5,5,0,0,1,41.388,0H38.46V-8.376Zm-.06,6.948a2.759,2.759,0,0,0,2.04-.72,2.742,2.742,0,0,0,.72-2.028,2.805,2.805,0,0,0-.72-2.046,2.72,2.72,0,0,0-2.04-.738H40.14v5.532ZM51.312.084a4.34,4.34,0,0,1-2.16-.552A4.121,4.121,0,0,1,47.592-2a4.28,4.28,0,0,1-.576-2.214,4.257,4.257,0,0,1,.576-2.2,4.121,4.121,0,0,1,1.56-1.53,4.34,4.34,0,0,1,2.16-.552,4.33,4.33,0,0,1,2.166.552,4.09,4.09,0,0,1,1.548,1.53,4.292,4.292,0,0,1,.57,2.2A4.315,4.315,0,0,1,55.026-2a4.077,4.077,0,0,1-1.554,1.53A4.34,4.34,0,0,1,51.312.084Zm0-1.5a2.559,2.559,0,0,0,1.332-.342,2.344,2.344,0,0,0,.9-.978,3.209,3.209,0,0,0,.324-1.476,3.172,3.172,0,0,0-.324-1.47,2.313,2.313,0,0,0-.9-.966,2.6,2.6,0,0,0-1.332-.336,2.628,2.628,0,0,0-1.338.336,2.3,2.3,0,0,0-.906.966,3.172,3.172,0,0,0-.324,1.47,3.209,3.209,0,0,0,.324,1.476,2.332,2.332,0,0,0,.906.978A2.591,2.591,0,0,0,51.312-1.416ZM66.12-8.376V-7.02H63.888V0h-1.68V-7.02H59.976V-8.376ZM72.024,0,70.176-3.264h-.792V0H67.7V-8.376h3.144a3.671,3.671,0,0,1,1.656.342,2.389,2.389,0,0,1,1.026.924,2.522,2.522,0,0,1,.342,1.3,2.494,2.494,0,0,1-.48,1.494,2.466,2.466,0,0,1-1.428.918l2,3.4Zm-2.64-4.524h1.4a1.4,1.4,0,0,0,1.02-.33,1.228,1.228,0,0,0,.336-.918,1.172,1.172,0,0,0-.336-.894,1.437,1.437,0,0,0-1.02-.318h-1.4ZM80.88-1.6H77.544L76.992,0H75.228L78.24-8.388H80.2L83.208,0H81.432ZM80.424-2.94l-1.212-3.5L78-2.94ZM89.448-4.3a1.882,1.882,0,0,1,1.164.708,2.068,2.068,0,0,1,.456,1.32,2.127,2.127,0,0,1-.33,1.182,2.2,2.2,0,0,1-.954.8A3.5,3.5,0,0,1,88.308,0H84.7V-8.376h3.456a3.584,3.584,0,0,1,1.47.276,2.093,2.093,0,0,1,.936.768,2.011,2.011,0,0,1,.318,1.116,1.909,1.909,0,0,1-.39,1.224A2.087,2.087,0,0,1,89.448-4.3ZM86.376-4.92h1.536a1.406,1.406,0,0,0,.924-.27.951.951,0,0,0,.324-.774.969.969,0,0,0-.324-.78,1.385,1.385,0,0,0-.924-.276H86.376Zm1.692,3.552a1.438,1.438,0,0,0,.954-.288,1.008,1.008,0,0,0,.342-.816A1.051,1.051,0,0,0,89-3.318a1.452,1.452,0,0,0-.972-.306H86.376v2.256Zm9.84-.228H94.572L94.02,0H92.256l3.012-8.388h1.956L100.236,0H98.46ZM97.452-2.94l-1.212-3.5-1.212,3.5ZM103.4-1.332h2.76V0h-4.44V-8.376h1.68ZM114.54-8.376V0h-1.68V-3.564h-3.588V0h-1.68V-8.376h1.68v3.444h3.588V-8.376Zm5.9,8.46a4.34,4.34,0,0,1-2.16-.552A4.121,4.121,0,0,1,116.724-2a4.28,4.28,0,0,1-.576-2.214,4.257,4.257,0,0,1,.576-2.2,4.121,4.121,0,0,1,1.56-1.53,4.34,4.34,0,0,1,2.16-.552,4.33,4.33,0,0,1,2.166.552,4.09,4.09,0,0,1,1.548,1.53,4.292,4.292,0,0,1,.57,2.2A4.315,4.315,0,0,1,124.158-2,4.077,4.077,0,0,1,122.6-.468,4.34,4.34,0,0,1,120.444.084Zm0-1.5a2.559,2.559,0,0,0,1.332-.342,2.344,2.344,0,0,0,.9-.978A3.209,3.209,0,0,0,123-4.212a3.172,3.172,0,0,0-.324-1.47,2.313,2.313,0,0,0-.9-.966,2.6,2.6,0,0,0-1.332-.336,2.628,2.628,0,0,0-1.338.336,2.3,2.3,0,0,0-.906.966,3.172,3.172,0,0,0-.324,1.47,3.209,3.209,0,0,0,.324,1.476,2.332,2.332,0,0,0,.906.978A2.591,2.591,0,0,0,120.444-1.416Z" transform="translate(-1236.824 -176.668)" fill="#fff"/>
  </g>
</svg>
