<svg id="img-pag-8" xmlns="http://www.w3.org/2000/svg" xmlns:xlink="http://www.w3.org/1999/xlink" width="363.027" height="237.442" viewBox="0 0 363.027 237.442">
  <defs>
    <clipPath id="clip-path">
      <rect id="Retângulo_172" data-name="Retângulo 172" width="363.027" height="237.442" fill="none"/>
    </clipPath>
  </defs>
  <g id="Grupo_478" data-name="Grupo 478">
    <g id="Grupo_477" data-name="Grupo 477" clip-path="url(#clip-path)">
      <path id="Caminho_551" data-name="Caminho 551" d="M540.182,96.075H404.774a5.428,5.428,0,0,1-5.428-5.428V5.428A5.428,5.428,0,0,1,404.774,0H540.182a5.428,5.428,0,0,1,5.428,5.428V90.647a5.428,5.428,0,0,1-5.428,5.428" transform="translate(-182.582)" fill="#6dafcc"/>
    </g>
  </g>
  <text id="O_OBJETO_" data-name="O OBJETO " transform="translate(258 41.86)" fill="#fff" font-size="11" font-family="Poppins-Regular, Poppins"><tspan x="0" y="0">O OBJETO </tspan></text>
  <text id="DE_TRABALHO" data-name="DE TRABALHO" transform="translate(250 56.19)" fill="#fff" font-size="11" font-family="Poppins-Regular, Poppins"><tspan x="0" y="0">DE TRABALHO</tspan></text>
  <g id="Grupo_480" data-name="Grupo 480">
    <g id="Grupo_479" data-name="Grupo 479" clip-path="url(#clip-path)">
      <path id="Caminho_552" data-name="Caminho 552" d="M140.836,96.075H5.428A5.428,5.428,0,0,1,0,90.647V5.428A5.428,5.428,0,0,1,5.428,0H140.836a5.428,5.428,0,0,1,5.428,5.428V90.647a5.428,5.428,0,0,1-5.428,5.428" fill="#1b8992"/>
    </g>
  </g>
  <text id="A_FINALIDADE" data-name="A FINALIDADE" transform="translate(33.534 41.86)" fill="#fff" font-size="11" font-family="Poppins-Regular, Poppins"><tspan x="0" y="0">A FINALIDADE</tspan></text>
  <text id="DO_TRABALHO" data-name="DO TRABALHO" transform="translate(31.372 56.19)" fill="#fff" font-size="11" font-family="Poppins-Regular, Poppins"><tspan x="0" y="0">DO TRABALHO</tspan></text>
  <g id="Grupo_482" data-name="Grupo 482">
    <g id="Grupo_481" data-name="Grupo 481" clip-path="url(#clip-path)">
      <path id="Caminho_553" data-name="Caminho 553" d="M540.182,356.517H404.774a5.428,5.428,0,0,1-5.428-5.428V265.87a5.428,5.428,0,0,1,5.428-5.428H540.182a5.428,5.428,0,0,1,5.428,5.428v85.219a5.428,5.428,0,0,1-5.428,5.428" transform="translate(-182.582 -119.075)" fill="#108141"/>
    </g>
  </g>
  <text id="OS_INSTRUMENTOS_" data-name="OS INSTRUMENTOS " transform="translate(241.912 189.655)" fill="#fff" font-size="11" font-family="Poppins-Regular, Poppins"><tspan x="0" y="0">OS INSTRUMENTOS </tspan></text>
  <text id="DE_TRABALHO-2" data-name="DE TRABALHO" transform="translate(258.641 203.985)" fill="#fff" font-size="11" font-family="Poppins-Regular, Poppins"><tspan x="0" y="0">DE TRABALHO</tspan></text>
  <g id="Grupo_484" data-name="Grupo 484">
    <g id="Grupo_483" data-name="Grupo 483" clip-path="url(#clip-path)">
      <path id="Caminho_554" data-name="Caminho 554" d="M140.836,356.517H5.428A5.428,5.428,0,0,1,0,351.089V265.87a5.428,5.428,0,0,1,5.428-5.428H140.836a5.428,5.428,0,0,1,5.428,5.428v85.219a5.428,5.428,0,0,1-5.428,5.428" transform="translate(0 -119.075)" fill="#f4bb2a"/>
    </g>
  </g>
  <text id="A_FORÇA_" data-name="A FORÇA " transform="translate(45.475 188.655)" fill="#fff" font-size="11" font-family="Poppins-Regular, Poppins"><tspan x="0" y="0">A FORÇA </tspan></text>
  <text id="DE_TRABALHO-3" data-name="DE TRABALHO" transform="translate(32.889 202.985)" fill="#fff" font-size="11" font-family="Poppins-Regular, Poppins"><tspan x="0" y="0">DE TRABALHO</tspan></text>
  <g id="Grupo_486" data-name="Grupo 486">
    <g id="Grupo_485" data-name="Grupo 485" clip-path="url(#clip-path)">
      <path id="Caminho_555" data-name="Caminho 555" d="M307.7,125.1H147.732a5.429,5.429,0,0,0-4.914,3.123l-22.393,47.724a5.428,5.428,0,0,0,0,4.612l22.393,47.724a5.427,5.427,0,0,0,4.914,3.122H307.7a5.427,5.427,0,0,0,4.914-3.122l22.393-47.724a5.429,5.429,0,0,0,0-4.612l-22.393-47.724A5.429,5.429,0,0,0,307.7,125.1" transform="translate(-54.824 -57.194)" fill="#fff"/>
      <path id="Caminho_556" data-name="Caminho 556" d="M301.751,122.1h-156.7a5.428,5.428,0,0,0-4.914,3.123l-21.9,46.68a5.427,5.427,0,0,0,0,4.612l21.9,46.68a5.428,5.428,0,0,0,4.914,3.122h156.7a5.428,5.428,0,0,0,4.914-3.122l21.9-46.68a5.427,5.427,0,0,0,0-4.612l-21.9-46.68a5.429,5.429,0,0,0-4.914-3.123" transform="translate(-53.824 -55.823)" fill="#3e6d93"/>
    </g>
  </g>
  <text id="RESULTADO_PRODUTO" data-name="RESULTADO / PRODUTO" transform="translate(97.836 113.048)" fill="#fff" font-size="12" font-family="Poppins-SemiBold, Poppins" font-weight="600"><tspan x="0" y="0" letter-spacing="0.03em">RESULTAD</tspan><tspan y="0" letter-spacing="0.029em">O</tspan><tspan y="0" xml:space="preserve" letter-spacing="0.03em"> / P</tspan><tspan y="0" letter-spacing="0.029em">RO</tspan><tspan y="0" letter-spacing="0.03em">DUT</tspan><tspan y="0">O</tspan></text>
  <text id="FINAL_DO_TRABALHO" data-name="FINAL DO TRABALHO" transform="translate(108.176 129.332)" fill="#fff" font-size="12" font-family="Poppins-SemiBold, Poppins" font-weight="600"><tspan x="0" y="0" letter-spacing="0.03em">FINAL DO T</tspan><tspan y="0" letter-spacing="0.029em">R</tspan><tspan y="0" letter-spacing="0.03em">ABALH</tspan><tspan y="0">O</tspan></text>
</svg>
